<svg width="38" height="38" viewBox="0 0 38 38" fill="none" xmlns="http://www.w3.org/2000/svg">
<path opacity="0.15" d="M4.75001 19C4.75001 26.8701 11.1299 33.25 19 33.25C26.8701 33.25 33.25 26.8701 33.25 19C33.25 11.1299 26.8701 4.75 19 4.75C11.1299 4.75 4.75001 11.1299 4.75001 19Z" fill="#3EB49C"/>
<path d="M14.9936 11.923C14.5299 11.4593 14.5299 10.7074 14.9936 10.2436C15.4574 9.7799 16.2093 9.7799 16.673 10.2436L14.9936 11.923ZM23.75 19L24.5897 18.1603C25.0534 18.6241 25.0534 19.3759 24.5897 19.8397L23.75 19ZM16.673 27.7563C16.2093 28.2201 15.4574 28.2201 14.9936 27.7563C14.5299 27.2926 14.5299 26.5407 14.9936 26.077L16.673 27.7563ZM16.673 10.2436L24.5897 18.1603L22.9103 19.8397L14.9936 11.923L16.673 10.2436ZM24.5897 19.8397L16.673 27.7563L14.9936 26.077L22.9103 18.1603L24.5897 19.8397ZM5.93751 19C5.93751 26.2142 11.7858 32.0625 19 32.0625V34.4375C10.4741 34.4375 3.56251 27.5259 3.56251 19H5.93751ZM19 32.0625C26.2142 32.0625 32.0625 26.2142 32.0625 19H34.4375C34.4375 27.5259 27.5259 34.4375 19 34.4375V32.0625ZM32.0625 19C32.0625 11.7858 26.2142 5.9375 19 5.9375V3.5625C27.5259 3.5625 34.4375 10.4741 34.4375 19H32.0625ZM19 5.9375C11.7858 5.9375 5.93751 11.7858 5.93751 19H3.56251C3.56251 10.4741 10.4741 3.5625 19 3.5625V5.9375Z" fill="#3EB49C"/>
</svg>
