<svg width="26" height="26" viewBox="0 0 26 26" fill="none" xmlns="http://www.w3.org/2000/svg">
<path opacity="0.15" fill-rule="evenodd" clip-rule="evenodd" d="M8.82837 11.1078V21.6122H18.6609C19.6624 21.6122 20.5246 20.9053 20.721 19.9233L21.9815 13.6207C22.2415 12.3207 21.2472 11.1078 19.9214 11.1078H15.131L17.6791 7.28563C18.485 6.07681 17.8501 4.43449 16.4406 4.08212L16.3907 4.06963C15.6187 3.87663 14.8039 4.13637 14.286 4.74055L8.82837 11.1078Z" fill="#2BCA83"/>
<path d="M8.82822 11.1078H4.62646V21.6122H8.82822M8.82822 11.1078V21.6122M8.82822 11.1078L14.2859 4.74055C14.8037 4.13637 15.6185 3.87663 16.3905 4.06963L16.4405 4.08212C17.8499 4.43449 18.4849 6.07681 17.679 7.28563L15.1309 11.1078H19.9213C21.247 11.1078 22.2414 12.3207 21.9814 13.6207L20.7208 19.9233C20.5244 20.9053 19.6622 21.6122 18.6608 21.6122H8.82822" stroke="#2BCA83" stroke-width="1.45446" stroke-linecap="round" stroke-linejoin="round"/>
</svg>
