<svg width="38" height="38" viewBox="0 0 38 38" fill="none" xmlns="http://www.w3.org/2000/svg">
<path opacity="0.15" d="M33.25 19C33.25 26.8701 26.8701 33.25 19 33.25C11.1299 33.25 4.75 26.8701 4.75 19C4.75 11.1299 11.1299 4.75 19 4.75C26.8701 4.75 33.25 11.1299 33.25 19Z" fill="#3EB49C"/>
<path d="M23.0064 11.923C23.4701 11.4593 23.4701 10.7074 23.0064 10.2436C22.5426 9.7799 21.7907 9.7799 21.327 10.2436L23.0064 11.923ZM14.25 19L13.4103 18.1603C12.9466 18.6241 12.9466 19.3759 13.4103 19.8397L14.25 19ZM21.327 27.7563C21.7907 28.2201 22.5426 28.2201 23.0064 27.7563C23.4701 27.2926 23.4701 26.5407 23.0064 26.077L21.327 27.7563ZM21.327 10.2436L13.4103 18.1603L15.0897 19.8397L23.0064 11.923L21.327 10.2436ZM13.4103 19.8397L21.327 27.7563L23.0064 26.077L15.0897 18.1603L13.4103 19.8397ZM32.0625 19C32.0625 26.2142 26.2142 32.0625 19 32.0625V34.4375C27.5259 34.4375 34.4375 27.5259 34.4375 19H32.0625ZM19 32.0625C11.7858 32.0625 5.9375 26.2142 5.9375 19H3.5625C3.5625 27.5259 10.4741 34.4375 19 34.4375V32.0625ZM5.9375 19C5.9375 11.7858 11.7858 5.9375 19 5.9375V3.5625C10.4741 3.5625 3.5625 10.4741 3.5625 19H5.9375ZM19 5.9375C26.2142 5.9375 32.0625 11.7858 32.0625 19H34.4375C34.4375 10.4741 27.5259 3.5625 19 3.5625V5.9375Z" fill="#3EB49C"/>
</svg>
