<svg width="113" height="21" viewBox="0 0 113 21" fill="none" xmlns="http://www.w3.org/2000/svg">
<path d="M6.937 0.5137H0.568398V20.6905H6.937C14.391 20.6905 19.294 16.6608 19.294 10.6021C19.294 4.5575 14.348 0.5137 6.937 0.5137ZM6.6975 17.9289H4.1754V3.2753H6.6975C12.728 3.2753 15.546 6.3046 15.546 10.6021C15.546 14.9136 12.714 17.9289 6.6975 17.9289Z" fill="#2D2D2D"/>
<path d="M45.684 8.0518C45.684 3.4303 42.105 0.5137 35.708 0.5137H29.917V20.6905H33.524V15.5054H35.708C36.356 15.5054 37.004 15.449 37.652 15.3927L41.809 20.7046H45.965L41.062 14.4768C44.077 13.3074 45.684 11.1657 45.684 8.0518ZM35.567 12.8001H33.524V3.2753H35.567C40.09 3.2753 42.006 5.0225 42.006 8.0518C42.006 11.053 40.16 12.8001 35.567 12.8001Z" fill="#2D2D2D"/>
<path d="M57.675 16.8018C56.421 16.8018 55.322 17.6331 55.322 18.8166C55.322 20.0002 56.407 20.8597 57.675 20.8597C58.901 20.8597 59.986 20.0002 59.986 18.8166C59.986 17.6331 58.901 16.8018 57.675 16.8018Z" fill="#2D2D2D"/>
<path d="M78.444 9.0385L76.95 8.4467C74.597 7.5591 73.611 6.8687 73.611 5.361C73.611 3.9943 74.766 3.0221 76.612 3.0221C78.416 3.0221 79.444 3.6421 80.318 4.9806L83.15 3.473C81.755 1.3031 79.67 0.3027 76.612 0.3027C72.766 0.3027 70.103 2.4444 70.103 5.4315C70.103 8.5454 72.146 10.0248 75.513 11.3352L77.049 11.927C79.571 12.8992 80.938 13.6741 80.938 15.4213C80.938 17.0839 79.275 18.1829 76.922 18.1829C74.09 18.1829 72.695 16.943 71.61 15.3649L68.651 16.788C69.948 19.0706 72.597 20.9727 76.993 20.9727C81.346 20.9727 84.517 18.9297 84.517 15.3931C84.503 12.1524 82.389 10.5461 78.444 9.0385Z" fill="#2D2D2D"/>
<path d="M108.92 0.5137V13.4201C108.92 16.689 107.046 18.1402 103.679 18.1402C100.311 18.1402 98.465 16.689 98.465 13.4201V0.5137H94.858V13.5892C94.858 18.4784 98.635 20.9441 103.679 20.9441C108.681 20.9441 112.499 18.4784 112.499 13.5892V0.5137H108.92Z" fill="#2D2D2D"/>
<path d="M6.938 0.5137H0.569298V20.6905H6.938C14.392 20.6905 19.295 16.6608 19.295 10.6021C19.295 4.5575 14.349 0.5137 6.938 0.5137ZM6.6985 17.9289H4.1764V3.2753H6.6985C12.729 3.2753 15.547 6.3046 15.547 10.6021C15.547 14.9136 12.715 17.9289 6.6985 17.9289Z" fill="white"/>
<path d="M45.685 8.0518C45.685 3.4303 42.106 0.5137 35.709 0.5137H29.918V20.6905H33.525V15.5054H35.709C36.357 15.5054 37.005 15.449 37.653 15.3927L41.81 20.7046H45.966L41.063 14.4768C44.078 13.3074 45.685 11.1657 45.685 8.0518ZM35.568 12.8001H33.525V3.2753H35.568C40.091 3.2753 42.007 5.0225 42.007 8.0518C42.007 11.053 40.161 12.8001 35.568 12.8001Z" fill="white"/>
<path d="M57.676 16.8018C56.422 16.8018 55.323 17.6331 55.323 18.8166C55.323 20.0002 56.408 20.8597 57.676 20.8597C58.902 20.8597 59.987 20.0002 59.987 18.8166C59.987 17.6331 58.902 16.8018 57.676 16.8018Z" fill="white"/>
<path d="M78.445 9.0385L76.951 8.4467C74.598 7.5591 73.612 6.8687 73.612 5.361C73.612 3.9943 74.767 3.0221 76.613 3.0221C78.417 3.0221 79.445 3.6421 80.319 4.9806L83.151 3.473C81.756 1.3031 79.671 0.3027 76.613 0.3027C72.767 0.3027 70.104 2.4444 70.104 5.4315C70.104 8.5454 72.147 10.0248 75.514 11.3352L77.05 11.927C79.572 12.8992 80.939 13.6741 80.939 15.4213C80.939 17.0839 79.276 18.1829 76.923 18.1829C74.091 18.1829 72.696 16.943 71.611 15.3649L68.652 16.788C69.949 19.0706 72.598 20.9727 76.994 20.9727C81.347 20.9727 84.518 18.9297 84.518 15.3931C84.504 12.1524 82.39 10.5461 78.445 9.0385Z" fill="white"/>
<path d="M108.921 0.5137V13.4201C108.921 16.689 107.047 18.1402 103.68 18.1402C100.312 18.1402 98.466 16.689 98.466 13.4201V0.5137H94.859V13.5892C94.859 18.4784 98.635 20.9441 103.68 20.9441C108.682 20.9441 112.5 18.4784 112.5 13.5892V0.5137H108.921Z" fill="white"/>
</svg>
