<svg width="212" height="75" viewBox="0 0 212 75" fill="none" xmlns="http://www.w3.org/2000/svg">
<path d="M101.357 26.3125H94.6982V47.4092H101.357C109.151 47.4092 114.278 43.1957 114.278 36.8608C114.278 30.5407 109.106 26.3125 101.357 26.3125ZM101.107 44.5217H98.4697V29.2H101.107C107.412 29.2 110.359 32.3675 110.359 36.8608C110.359 41.3689 107.398 44.5217 101.107 44.5217Z" fill="#3C3C3C"/>
<path d="M141.87 34.1943C141.87 29.3621 138.128 26.3125 131.44 26.3125H125.385V47.4092H129.156V41.9877H131.44C132.117 41.9877 132.795 41.9288 133.473 41.8698L137.819 47.4239H142.165L137.038 40.9122C140.191 39.6894 141.87 37.4501 141.87 34.1943ZM131.292 39.1591H129.156V29.2H131.292C136.022 29.2 138.025 31.0268 138.025 34.1943C138.025 37.3323 136.095 39.1591 131.292 39.1591Z" fill="#3C3C3C"/>
<path d="M154.409 43.3428C153.097 43.3428 151.948 44.212 151.948 45.4495C151.948 46.687 153.083 47.5857 154.409 47.5857C155.69 47.5857 156.825 46.687 156.825 45.4495C156.825 44.212 155.69 43.3428 154.409 43.3428Z" fill="#3C3C3C"/>
<path d="M176.124 35.2258L174.562 34.6071C172.102 33.6789 171.071 32.9571 171.071 31.3807C171.071 29.9517 172.279 28.9351 174.209 28.9351C176.094 28.9351 177.17 29.5834 178.083 30.9829L181.044 29.4066C179.586 27.1378 177.405 26.0918 174.209 26.0918C170.187 26.0918 167.402 28.3311 167.402 31.4544C167.402 34.7102 169.538 36.2571 173.059 37.6272L174.665 38.246C177.302 39.2625 178.731 40.0728 178.731 41.8996C178.731 43.638 176.993 44.7871 174.533 44.7871C171.571 44.7871 170.113 43.4907 168.979 41.8406L165.885 43.3286C167.24 45.7153 170.01 47.7041 174.606 47.7041C179.159 47.7041 182.473 45.5679 182.473 41.8701C182.459 38.4817 180.249 36.8022 176.124 35.2258Z" fill="#3C3C3C"/>
<path d="M207.99 26.3125V39.8073C207.99 43.2252 206.031 44.7426 202.51 44.7426C198.989 44.7426 197.059 43.2252 197.059 39.8073V26.3125H193.287V39.9841C193.287 45.0962 197.235 47.6744 202.51 47.6744C207.74 47.6744 211.732 45.0962 211.732 39.9841V26.3125H207.99Z" fill="#3C3C3C"/>
<path d="M37.2768 74.5536C57.8642 74.5536 74.5536 57.8642 74.5536 37.2768C74.5536 16.6894 57.8642 0 37.2768 0C16.6894 0 0 16.6894 0 37.2768C0 57.8642 16.6894 74.5536 37.2768 74.5536Z" fill="#B4E6F4"/>
<path d="M37.1168 71.8869C56.1434 71.8869 71.5676 56.4628 71.5676 37.4361C71.5676 18.4095 56.1434 2.98535 37.1168 2.98535C18.0902 2.98535 2.66602 18.4095 2.66602 37.4361C2.66602 56.4628 18.0902 71.8869 37.1168 71.8869Z" fill="#F3F7CD"/>
<path d="M65.6501 28.6245C65.315 27.648 64.6514 26.818 63.7724 26.2764C63.7621 26.2709 63.7535 26.2627 63.7475 26.2527C63.7415 26.2427 63.7383 26.2312 63.7383 26.2195C63.7383 26.2079 63.7415 26.1964 63.7475 26.1864C63.7535 26.1763 63.7621 26.1681 63.7724 26.1626C64.6514 25.621 65.315 24.7911 65.6501 23.8146C65.6536 23.8006 65.6616 23.7882 65.673 23.7793C65.6843 23.7704 65.6983 23.7656 65.7127 23.7656C65.7271 23.7656 65.7411 23.7704 65.7524 23.7793C65.7638 23.7882 65.7718 23.8006 65.7753 23.8146C66.1078 24.7925 66.7721 25.6232 67.653 26.1626C67.6633 26.1681 67.6719 26.1763 67.6779 26.1864C67.6839 26.1964 67.6871 26.2079 67.6871 26.2195C67.6871 26.2312 67.6839 26.2427 67.6779 26.2527C67.6719 26.2627 67.6633 26.2709 67.653 26.2764C66.7721 26.8159 66.1078 27.6466 65.7753 28.6245C65.7718 28.6385 65.7638 28.6509 65.7524 28.6598C65.7411 28.6686 65.7271 28.6735 65.7127 28.6735C65.6983 28.6735 65.6843 28.6686 65.673 28.6598C65.6616 28.6509 65.6536 28.6385 65.6501 28.6245Z" fill="#EFA2D3"/>
<path d="M59.4942 20.0927C59.2857 19.4801 58.8698 18.9595 58.3183 18.6209C58.311 18.6176 58.3049 18.6122 58.3006 18.6055C58.2962 18.5988 58.2939 18.591 58.2939 18.583C58.2939 18.575 58.2962 18.5672 58.3006 18.5604C58.3049 18.5537 58.311 18.5484 58.3183 18.545C58.8698 18.2065 59.2857 17.6859 59.4942 17.0732C59.4969 17.0647 59.5022 17.0573 59.5093 17.0521C59.5165 17.0468 59.5251 17.0439 59.534 17.0439C59.5429 17.0439 59.5516 17.0468 59.5588 17.0521C59.5659 17.0573 59.5712 17.0647 59.5739 17.0732C59.7836 17.6863 60.2009 18.2069 60.7536 18.545C60.7599 18.5492 60.765 18.5548 60.7685 18.5614C60.7721 18.5681 60.7739 18.5755 60.7739 18.583C60.7739 18.5905 60.7721 18.5979 60.7685 18.6045C60.765 18.6111 60.7599 18.6167 60.7536 18.6209C60.2009 18.9591 59.7836 19.4796 59.5739 20.0927C59.5712 20.1012 59.5659 20.1086 59.5588 20.1139C59.5516 20.1192 59.5429 20.122 59.534 20.122C59.5251 20.122 59.5165 20.1192 59.5093 20.1139C59.5022 20.1086 59.4969 20.1012 59.4942 20.0927Z" fill="#EFA2D3"/>
<path d="M11.2473 23.0519C11.0453 22.4596 10.6428 21.9565 10.1093 21.6294C10.1029 21.6263 10.0975 21.6214 10.0937 21.6154C10.0899 21.6094 10.0879 21.6024 10.0879 21.5953C10.0879 21.5881 10.0899 21.5812 10.0937 21.5751C10.0975 21.5691 10.1029 21.5642 10.1093 21.5611C10.6419 21.2347 11.0442 20.7331 11.2473 20.1424C11.2473 20.1324 11.2513 20.1227 11.2584 20.1156C11.2655 20.1085 11.2751 20.1045 11.2852 20.1045C11.2953 20.1045 11.3049 20.1085 11.312 20.1156C11.3191 20.1227 11.3231 20.1324 11.3231 20.1424C11.5262 20.7331 11.9286 21.2347 12.4611 21.5611C12.4675 21.5642 12.473 21.5691 12.4767 21.5751C12.4805 21.5812 12.4825 21.5881 12.4825 21.5953C12.4825 21.6024 12.4805 21.6094 12.4767 21.6154C12.473 21.6214 12.4675 21.6263 12.4611 21.6294C11.9277 21.9565 11.5252 22.4596 11.3231 23.0519C11.3198 23.0592 11.3145 23.0653 11.3077 23.0696C11.301 23.0739 11.2932 23.0762 11.2852 23.0762C11.2772 23.0762 11.2694 23.0739 11.2627 23.0696C11.256 23.0653 11.2506 23.0592 11.2473 23.0519Z" fill="#EFA2D3"/>
<path d="M6.02758 37.1894C5.74994 36.3761 5.19722 35.6852 4.46474 35.2359C4.45596 35.2314 4.44858 35.2247 4.44343 35.2163C4.43828 35.2079 4.43555 35.1983 4.43555 35.1884C4.43555 35.1786 4.43828 35.169 4.44343 35.1606C4.44858 35.1522 4.45596 35.1455 4.46474 35.141C5.19722 34.6916 5.74994 34.0007 6.02758 33.1875C6.03066 33.1763 6.03734 33.1664 6.04659 33.1593C6.05584 33.1523 6.06715 33.1484 6.07879 33.1484C6.09042 33.1484 6.10173 33.1523 6.11098 33.1593C6.12023 33.1664 6.12691 33.1763 6.13 33.1875C6.4065 34.0014 6.95949 34.6926 7.69283 35.141C7.70161 35.1455 7.70899 35.1522 7.71415 35.1606C7.7193 35.169 7.72203 35.1786 7.72203 35.1884C7.72203 35.1983 7.7193 35.2079 7.71415 35.2163C7.70899 35.2247 7.70161 35.2314 7.69283 35.2359C6.95949 35.6843 6.4065 36.3755 6.13 37.1894C6.12691 37.2006 6.12023 37.2105 6.11098 37.2176C6.10173 37.2246 6.09042 37.2284 6.07879 37.2284C6.06715 37.2284 6.05584 37.2246 6.04659 37.2176C6.03734 37.2105 6.03066 37.2006 6.02758 37.1894Z" fill="#EFA2D3"/>
<path d="M8.00786 43.1107C7.87403 42.7184 7.60515 42.3863 7.2492 42.1738C7.24527 42.1714 7.24202 42.1681 7.23977 42.1641C7.23751 42.1601 7.23633 42.1556 7.23633 42.151C7.23633 42.1464 7.23751 42.1419 7.23977 42.138C7.24202 42.134 7.24527 42.1306 7.2492 42.1283C7.60454 41.9133 7.87306 41.5803 8.00786 41.1875C8.01049 41.1828 8.01433 41.1788 8.019 41.1761C8.02367 41.1733 8.029 41.1719 8.03442 41.1719C8.03984 41.1719 8.04516 41.1733 8.04983 41.1761C8.0545 41.1788 8.05834 41.1828 8.06097 41.1875C8.19576 41.5803 8.46429 41.9133 8.81963 42.1283C8.82356 42.1306 8.82681 42.134 8.82906 42.138C8.83132 42.1419 8.83251 42.1464 8.83251 42.151C8.83251 42.1556 8.83132 42.1601 8.82906 42.1641C8.82681 42.1681 8.82356 42.1714 8.81963 42.1738C8.46368 42.3863 8.1948 42.7184 8.06097 43.1107C8.06097 43.1178 8.05817 43.1245 8.05319 43.1295C8.04821 43.1345 8.04146 43.1373 8.03442 43.1373C8.02738 43.1373 8.02062 43.1345 8.01564 43.1295C8.01066 43.1245 8.00786 43.1178 8.00786 43.1107Z" fill="#EFA2D3"/>
<path d="M42.0328 10.2077C41.7749 4.5177 33.7368 6.18296 31.4495 9.57417C31.3525 9.71279 31.2795 9.86664 31.2333 10.0294C30.3867 10.7182 29.8028 11.6771 29.5794 12.7454C29.5468 12.9472 29.5545 13.1535 29.6021 13.3523C28.6993 14.6382 28.8435 16.8345 29.109 18.515C29.0548 18.52 29.0024 18.5366 28.9552 18.5637C28.908 18.5908 28.8671 18.6277 28.8355 18.672C28.8038 18.7162 28.782 18.7668 28.7716 18.8202C28.7612 18.8736 28.7625 18.9287 28.7752 18.9816C28.8511 19.3609 28.9269 19.7402 28.999 20.1196C29.1204 20.791 29.219 21.4624 29.2911 22.1414C29.3139 22.4448 29.3442 22.7521 29.3783 23.0556C29.3859 23.1289 29.4164 23.1979 29.4656 23.2528C29.4656 23.4539 29.4846 23.6549 29.4997 23.856C29.4061 23.8864 29.3266 23.9496 29.2758 24.0339C29.2249 24.1182 29.2061 24.2179 29.2228 24.3149L29.5528 25.9043C29.5645 25.9637 29.592 26.0187 29.6325 26.0637C29.6344 26.0914 29.6344 26.1193 29.6325 26.1471C29.6325 26.2477 29.6725 26.3442 29.7436 26.4153C29.8147 26.4865 29.9112 26.5264 30.0118 26.5264C30.1124 26.5264 30.2089 26.4865 30.2801 26.4153C30.3512 26.3442 30.3912 26.2477 30.3912 26.1471V26.0447C30.4548 26.049 30.5182 26.034 30.5731 26.0014C30.628 25.9689 30.6717 25.9205 30.6984 25.8626C31.4798 24.4022 32.0374 22.7597 32.8606 21.3107C33.1274 21.1657 33.3353 20.9323 33.4486 20.6506C33.4865 20.5634 33.5282 20.4837 33.5699 20.4003L34.0744 19.7895C34.2811 19.7543 34.4771 19.673 34.6478 19.5515C34.8186 19.4299 34.9597 19.2714 35.0607 19.0878L35.478 18.3784C35.5781 18.2136 35.6487 18.0326 35.6866 17.8436C36.815 17.0178 38.0131 16.2918 39.2675 15.6738C41.4183 14.5055 42.139 12.6012 42.0328 10.2077Z" fill="#B4E6F4"/>
<path d="M21.5313 20.1568C21.5283 20.105 21.5141 20.0545 21.4896 20.0089C21.4995 19.9363 21.4901 19.8624 21.4621 19.7947C21.4342 19.727 21.3887 19.668 21.3305 19.6236C21.2722 19.5792 21.2032 19.5511 21.1305 19.5422C21.0578 19.5332 20.9841 19.5437 20.9168 19.5726C19.4653 20.302 18.1521 21.2789 17.0362 22.4593C15.8413 23.658 14.6806 24.9212 13.6223 26.2337C12.5578 27.4716 11.7136 28.8829 11.1263 30.4063C10.5801 32.0573 10.3787 33.8028 10.5345 35.5348C10.6939 37.3152 10.9971 39.0798 11.4411 40.8113C11.4007 40.826 11.3637 40.8487 11.3322 40.878C11.3008 40.9074 11.2757 40.9428 11.2583 40.9822C11.2409 41.0215 11.2317 41.064 11.2312 41.107C11.2307 41.15 11.2388 41.1926 11.2552 41.2324C11.6118 42.2073 11.9836 43.1783 12.3932 44.138C12.5412 44.5174 13.1519 44.5174 13.1519 44.0356C13.1519 43.5539 13.1178 43.1328 13.0988 42.6814C13.3985 40.2916 14.0813 37.9019 15.8982 36.2328C16.8276 35.3679 17.7266 34.6017 18.3639 33.4827C18.4853 33.2664 18.6029 33.0464 18.7205 32.8226C18.7775 32.7923 18.8258 32.7479 18.8608 32.6937C20.0329 30.9298 21.0799 29.0293 21.5882 26.9582C22.1041 24.6936 21.7248 22.4252 21.5313 20.1568Z" fill="#B4E6F4"/>
<path d="M30.1227 9.22557C29.5196 9.51766 28.9127 9.79836 28.3019 10.0867C28.2002 10.0259 28.0868 9.98735 27.9691 9.97362C27.8514 9.95989 27.7321 9.97127 27.6191 10.007C25.7341 10.6397 24.0858 11.8302 22.8927 13.421C22.3332 14.2063 21.9455 15.1007 21.7547 16.0459C21.6562 16.5262 21.6142 17.0163 21.6295 17.5064C21.6337 17.7309 21.6502 17.955 21.6788 18.1778C21.0664 20.3396 21.3279 22.6556 22.4072 24.6264C23.1203 25.9882 23.9245 27.2589 24.0648 28.8294C24.2052 30.3998 23.8865 32.0082 23.5603 33.5558C23.5396 33.6461 23.5416 33.7402 23.5661 33.8295C23.5906 33.9189 23.6368 34.0008 23.7007 34.0679C23.2202 35.2211 22.6942 36.3591 22.1227 37.4819C21.6257 37.7816 21.8268 38.6199 22.354 38.5706C22.4619 38.5971 22.5752 38.5918 22.6802 38.5555C22.7851 38.5191 22.8774 38.4532 22.9458 38.3657C23.401 38.1836 23.86 37.9864 24.3152 37.7816C24.477 37.7904 24.6372 37.745 24.7704 37.6526L25.1118 37.3984C26.6746 36.5829 28.0706 35.5018 28.7837 33.8176C29.3413 32.4975 29.2465 31.0181 29.2503 29.6146C29.2503 28.7775 29.2414 27.9392 29.2237 27.0996C29.2795 27.0495 29.323 26.9871 29.3506 26.9173C29.3783 26.8475 29.3894 26.7723 29.383 26.6975C29.3349 24.597 29.1167 22.5039 28.7306 20.4386C28.712 20.3389 28.663 20.2474 28.5902 20.1768C28.6443 20.1246 28.685 20.0601 28.7088 19.9887C28.7325 19.9174 28.7387 19.8414 28.7268 19.7672C28.5211 17.9493 28.5606 16.1121 28.8444 14.3048C29.0796 12.8634 29.4703 11.3802 30.5286 10.318L30.6879 10.2422C31.3556 9.8894 30.779 8.91073 30.1227 9.22557Z" fill="#F2A5D6"/>
<path d="M57.8927 30.3765L57.8396 29.8644C57.837 29.8192 57.8281 29.7745 57.813 29.7317C57.813 29.6293 57.813 29.5268 57.813 29.4244C57.8103 29.2226 57.7425 29.027 57.6196 28.8668C57.2403 27.1067 57.2403 25.3163 56.804 23.5069C56.7451 23.2839 56.6024 23.0923 56.4057 22.972C56.4096 22.9367 56.4096 22.9011 56.4057 22.8658C56.3744 22.5311 56.2764 22.2061 56.1174 21.9099C56.015 21.7202 55.8898 21.5306 55.776 21.3599C55.5288 20.9504 55.3047 20.5274 55.1046 20.0929C54.7353 19.214 54.307 18.3611 53.8225 17.54C53.8225 17.4983 53.7959 17.4565 53.7846 17.4148C53.4303 16.3138 52.8804 15.2858 52.161 14.3802C52.0805 14.2846 51.9757 14.2125 51.8576 14.1715C51.6995 13.905 51.5206 13.6513 51.3227 13.4129C51.2299 13.3068 51.1109 13.227 50.9775 13.1815C50.5051 12.3695 49.888 11.6508 49.1567 11.061C48.307 10.4207 47.3758 9.89639 46.3876 9.50199C45.31 8.98611 44.181 8.58559 43.0192 8.3071C42.2946 8.16675 41.4222 8.97093 41.9495 9.70304C42.3415 10.247 42.7619 10.7699 43.2088 11.2697C43.1673 11.4843 43.205 11.7067 43.315 11.8956C43.7665 12.6047 44.3529 13.2182 45.041 13.7012C45.0782 13.8134 45.1212 13.9235 45.17 14.0312C45.5519 14.7953 46.0986 15.4651 46.7707 15.9923C48.0159 16.9152 49.3609 17.6952 50.7803 18.3176C51.0576 18.7678 51.4002 19.1743 51.7969 19.5239C51.9208 19.6332 52.0691 19.7112 52.2293 19.7515C52.4619 20.0424 52.7461 20.288 53.0676 20.476C53.1236 20.506 53.182 20.5314 53.2421 20.5519L53.3938 20.8857C53.5759 21.2878 53.7732 21.6861 53.9856 22.0692C54.0956 22.2627 54.2132 22.4485 54.3346 22.6382C54.3915 22.7292 54.4408 22.8165 54.4939 22.9075C54.547 22.9986 54.5167 22.991 54.5129 22.9455V22.9644C54.5606 23.2477 54.7137 23.5025 54.9415 23.6776C54.9228 23.7906 54.9228 23.9059 54.9415 24.019C55.1467 24.9674 55.2924 25.9277 55.3777 26.8943C55.4744 27.954 55.6558 29.0044 55.9202 30.0351C55.9627 30.1991 56.0514 30.3475 56.1758 30.4625C56.3003 30.5775 56.4551 30.6543 56.6219 30.6838C56.708 30.8982 56.861 31.0791 57.0582 31.1997L57.1265 31.2224C57.1595 31.2777 57.2049 31.3244 57.2592 31.359C57.342 31.4052 57.438 31.4221 57.5317 31.407C57.6253 31.3918 57.7111 31.3455 57.7751 31.2755C57.868 31.1713 57.9182 31.0358 57.9155 30.8962C57.9382 30.7141 57.9079 30.5472 57.8927 30.3765Z" fill="#F2A5D6"/>
<path d="M54.9688 24.8416C54.8573 24.2191 54.6884 23.6083 54.4643 23.017C54.2708 22.5163 54.066 21.8525 53.5615 21.5831C53.5071 21.5529 53.4453 21.5384 53.3832 21.5414C53.0845 21.0825 52.7442 20.652 52.3666 20.2555C51.67 19.5529 50.8845 18.9446 50.0299 18.4461C49.7873 18.1129 49.5073 17.8087 49.1954 17.5395C48.4866 16.99 47.7456 16.4833 46.9763 16.0222C46.1638 15.4734 45.473 14.7632 44.9469 13.9358C44.297 12.985 43.6647 12.0202 43.0502 11.0416C43.0123 10.9777 42.9553 10.9273 42.8873 10.8973C42.8193 10.8674 42.7436 10.8595 42.6709 10.8747C42.6252 10.8423 42.5732 10.8199 42.5184 10.8088C42.4635 10.7977 42.4069 10.7981 42.3523 10.8102C42.2558 10.8376 42.1742 10.902 42.1251 10.9895C42.0761 11.0769 42.0636 11.1802 42.0905 11.2767V11.3792C42.0679 11.4111 42.0488 11.4455 42.0336 11.4816C41.6543 12.4223 41.275 13.3656 40.8956 14.3114C40.8803 14.3547 40.8738 14.4006 40.8766 14.4465C40.8794 14.4923 40.8915 14.5371 40.912 14.5782C40.9326 14.6193 40.9612 14.6558 40.9962 14.6856C41.0312 14.7153 41.0718 14.7377 41.1156 14.7514C41.1879 14.8251 41.2856 14.8685 41.3888 14.8728H41.5329C41.5519 14.8728 41.6239 14.8728 41.5329 14.8728H41.5974C41.6921 14.8889 41.7858 14.9104 41.8781 14.9373C41.9691 14.9638 42.0564 14.998 42.1436 15.0321L42.2157 15.0663L42.3409 15.1307C42.4206 15.173 42.4979 15.2199 42.5723 15.2711L42.6709 15.3394L42.7012 15.3659L42.7505 15.4076C42.8225 15.4695 42.8909 15.5353 42.9554 15.6049C42.989 15.6398 43.0207 15.6765 43.0502 15.7149L43.0919 15.7642C43.0388 15.6959 43.0919 15.7642 43.1109 15.787C43.1578 15.8659 43.2316 15.9251 43.3188 15.9537C43.406 15.9823 43.5006 15.9783 43.5851 15.9425C43.6329 15.9438 43.6805 15.9361 43.7254 15.9197C44.0706 16.2991 44.211 16.9819 44.3551 17.4371C44.5827 18.1388 44.7762 18.852 45.0189 19.5461C45.3817 20.7715 46.0684 21.8763 47.0066 22.7439C47.0505 22.7814 47.1023 22.8084 47.1582 22.8229C47.2141 22.8374 47.2725 22.8389 47.3291 22.8274C47.6629 23.4267 47.9967 24.0298 48.3457 24.6216C48.7146 25.2621 49.2544 25.7874 49.9047 26.1389L51.3841 26.9734C51.4606 27.088 51.5637 27.1823 51.6846 27.2484C51.8055 27.3144 51.9405 27.3502 52.0783 27.3528L54.5325 28.7411C54.5614 28.8231 54.6174 28.8926 54.6914 28.9382C54.7654 28.9838 54.8527 29.0026 54.9389 28.9915C55.025 28.9804 55.1048 28.94 55.1647 28.8772C55.2247 28.8144 55.2613 28.7329 55.2684 28.6463C55.2811 27.3717 55.1808 26.0985 54.9688 24.8416Z" fill="#D0ECE0"/>
<path d="M66.106 40.6146C65.889 39.704 65.5292 38.8334 65.0401 38.0352C64.7835 37.6092 64.5036 37.1976 64.2018 36.8024C64.0376 36.5424 63.8312 36.3116 63.591 36.1196L62.7603 34.1281C62.563 33.5964 62.3086 33.0876 62.0016 32.6108C61.6426 32.1805 61.3143 31.7254 61.0192 31.249C60.9922 31.1898 60.9538 31.1365 60.9061 31.0923C60.8585 31.048 60.8026 31.0136 60.7416 30.991C60.6806 30.9685 60.6157 30.9582 60.5507 30.9608C60.4858 30.9634 60.4219 30.9788 60.3629 31.0062C59.885 29.9934 59.4032 28.9844 58.9101 27.9716C58.8642 27.8738 58.7848 27.7958 58.6863 27.7516C58.6408 27.4557 58.5953 27.156 58.5459 26.8563C58.4321 26.1356 57.3359 26.4429 57.4497 27.1598C57.6621 28.514 57.8594 29.872 58.0869 31.2262C58.2576 32.2125 58.9632 32.9484 59.6574 33.6501C59.6602 33.6948 59.6666 33.7392 59.6763 33.7829L59.7295 33.9384C59.7086 34.0404 59.72 34.1464 59.7622 34.2415C59.8043 34.3367 59.8751 34.4164 59.9646 34.4695C61.2164 36.4837 61.334 38.9077 61.2809 41.2254C60.9945 42.4249 60.9945 43.675 61.2809 44.8745C61.7361 46.4867 63.0258 47.6816 64.4445 48.4895C64.5312 48.5379 64.629 48.5631 64.7282 48.5626C64.8275 48.5621 64.925 48.536 65.0112 48.4867C65.0975 48.4375 65.1695 48.3669 65.2204 48.2816C65.2713 48.1964 65.2994 48.0995 65.3018 48.0002C65.4041 47.1123 65.5895 46.236 65.8556 45.3828C65.8696 45.3384 65.8785 45.2926 65.8822 45.2463C66.3732 43.7508 66.4505 42.1504 66.106 40.6146Z" fill="#D0ECE0"/>
<path d="M58.4282 58.7055C58.4715 58.5837 58.4795 58.4522 58.4513 58.326C58.4231 58.1998 58.3599 58.0842 58.2689 57.9924C58.1806 57.8232 58.0639 57.6705 57.9237 57.541C57.8849 57.5101 57.843 57.4834 57.7985 57.4613L57.4799 55.7923C57.1499 54.0815 56.8502 52.3176 57.3016 50.603C57.3411 50.4781 57.333 50.343 57.2789 50.2237C57.3037 50.1782 57.3228 50.1298 57.3358 50.0796C57.8972 49.6092 57.0892 48.8126 56.5316 49.2754C54.7639 50.7396 53.2011 52.5035 52.3058 54.6429C52.1996 54.9008 52.101 55.1664 52.0175 55.4319C51.9069 55.4418 51.8023 55.4864 51.7185 55.5593C51.6347 55.6321 51.5761 55.7296 51.551 55.8378C51.3879 56.9758 51.1717 58.091 51.1034 59.2214C51.1034 59.3769 51.1034 59.5287 51.1034 59.6804C50.9706 60.3542 50.9822 61.0485 51.1375 61.7174C51.2468 62.3619 51.4092 62.9963 51.6231 63.6141C51.8325 64.1531 52.1228 64.6571 52.4841 65.1086C52.6283 65.2945 52.7724 65.4879 52.9052 65.6738C53.0531 65.9887 53.2049 66.3073 53.3566 66.6221C53.588 67.1115 54.2328 66.9142 54.3808 66.4932C54.5847 66.4594 54.7788 66.3818 54.9498 66.2656C55.2419 66.0797 55.5339 65.8862 55.8222 65.6966L56.0119 65.5638C56.0548 65.5433 56.0966 65.5205 56.1371 65.4955C56.4447 65.2928 56.7296 65.0576 56.9868 64.7938L57.1916 64.6079C57.2752 64.6239 57.3615 64.6192 57.4429 64.594C57.5242 64.5689 57.5982 64.5242 57.6582 64.4638C58.6255 63.523 58.7962 61.964 58.8531 60.6705C58.9119 59.9877 58.7639 59.303 58.4282 58.7055Z" fill="#D0ECE0"/>
<path d="M23.7121 28.5599C23.6398 28.0682 23.4696 27.5961 23.2114 27.1715C23.1185 26.6624 22.9815 26.1623 22.8017 25.677C22.7886 25.5764 22.7361 25.4851 22.6557 25.4232C22.5753 25.3613 22.4736 25.3339 22.373 25.3469C22.2724 25.36 22.1811 25.4125 22.1193 25.4929C22.0574 25.5733 22.0299 25.675 22.043 25.7756V25.9766C22.0909 26.0429 22.1134 26.1241 22.1064 26.2056C22.0994 26.287 22.0635 26.3633 22.0051 26.4204C22.0045 26.6008 21.9906 26.7808 21.9634 26.9591C21.8958 27.349 21.7864 27.7306 21.6371 28.0971C21.5482 28.2021 21.4777 28.3214 21.4285 28.4499C20.924 29.8003 20.4043 31.1886 19.5319 32.3456C19.3915 32.5201 19.2474 32.6984 19.0994 32.8691C18.944 33.0425 18.8506 33.2627 18.8339 33.495C18.3521 34.0033 17.8628 34.5078 17.3659 35.0123C16.9456 35.3193 16.5801 35.6951 16.2848 36.1237C16.2086 36.2363 16.164 36.3673 16.1558 36.503C15.9965 36.589 15.8334 36.6725 15.6665 36.7534C15.5204 36.8307 15.3995 36.9483 15.3182 37.0921C15.2369 37.236 15.1984 37.4001 15.2075 37.5652L15.162 37.6183C14.0581 39.257 13.0643 41.1536 13.2653 43.1944C13.2876 43.4413 13.3872 43.6749 13.5498 43.862C13.5498 43.9379 13.5498 44.0176 13.5498 44.0934C13.6133 44.5253 13.7058 44.9524 13.8267 45.3718C13.8912 45.6639 13.9519 45.9559 14.0164 46.248C14.0883 46.7492 14.1948 47.2447 14.335 47.7312C14.384 47.9418 14.5091 48.1269 14.6862 48.2508C14.8634 48.3748 15.0801 48.4288 15.2947 48.4026C15.609 48.8372 15.9579 49.2457 16.3379 49.6241C16.3937 49.6785 16.4561 49.7257 16.5238 49.7644C16.6782 50.0087 16.856 50.2374 17.0548 50.4472C17.2238 50.6201 17.4078 50.7775 17.6049 50.9176L16.7931 50.5458C16.7206 50.5029 16.6359 50.4853 16.5524 50.4959C16.4688 50.5064 16.3911 50.5445 16.3316 50.604C16.272 50.6636 16.234 50.7412 16.2234 50.8248C16.2129 50.9084 16.2305 50.9931 16.2734 51.0655C16.3876 51.2381 16.4902 51.4181 16.5807 51.6042L16.5996 51.6497C16.585 51.6743 16.5748 51.7013 16.5693 51.7294C16.534 51.7617 16.5071 51.8019 16.4906 51.8468C16.4741 51.8917 16.4685 51.9399 16.4745 51.9873C16.5351 52.6663 16.5996 53.3453 16.6603 54.0243C16.6735 54.1093 16.7115 54.1885 16.7695 54.2519C16.8276 54.3153 16.9031 54.3602 16.9865 54.3809V54.4833C16.9621 54.5002 16.9393 54.5192 16.9183 54.5402C16.7409 54.7186 16.6413 54.96 16.6414 55.2116V55.2495C16.5881 55.2754 16.5423 55.3146 16.5086 55.3633L16.3417 55.6023C16.3095 55.652 16.2924 55.71 16.2924 55.7692C16.2924 55.8284 16.3095 55.8864 16.3417 55.9361L16.2544 56.2282C16.2407 56.2773 16.2376 56.3288 16.2455 56.3792C16.2534 56.4296 16.2719 56.4777 16.3 56.5203C16.152 56.782 16.0041 57.0438 15.8713 57.3131C15.822 57.3965 15.7765 57.48 15.731 57.5672C15.7111 57.601 15.6982 57.6384 15.693 57.6773C15.5527 57.9655 15.4237 58.2614 15.3137 58.5611C15.2994 58.5907 15.2868 58.6211 15.2758 58.6521C15.274 58.6583 15.274 58.6649 15.2758 58.6711C15.1658 58.8759 15.0482 59.0808 14.9382 59.2856C14.8842 59.29 14.8325 59.3088 14.7884 59.3402C14.7443 59.3716 14.7095 59.4143 14.6878 59.4639C14.6233 59.6005 14.5512 59.7332 14.4868 59.8698C14.4315 59.8762 14.3787 59.8962 14.333 59.928C14.2874 59.9597 14.2503 60.0023 14.225 60.0519C13.9829 60.5049 13.7811 60.9784 13.6219 61.4668C13.5945 61.5422 13.5956 61.6251 13.625 61.6998C13.6543 61.7745 13.7098 61.8359 13.7812 61.8727C13.7774 61.8914 13.7774 61.9108 13.7812 61.9296C13.8498 62.1996 13.9722 62.4529 14.141 62.6745C14.3098 62.8961 14.5216 63.0814 14.7637 63.2193C14.8361 63.2627 14.921 63.2806 15.0048 63.2703C15.0887 63.26 15.1667 63.222 15.2265 63.1624L15.5337 62.9044L15.6475 62.8096C15.6959 62.831 15.7482 62.8421 15.8011 62.8421C15.8541 62.8421 15.9064 62.831 15.9548 62.8096C16.021 62.8253 16.09 62.8249 16.156 62.8084C16.222 62.7919 16.2831 62.7598 16.3341 62.7148C16.7757 62.3182 17.1589 61.8609 17.4721 61.3568C17.4721 61.334 17.4986 61.3074 17.5138 61.2809H17.5745C17.6737 61.2845 17.7704 61.2491 17.8438 61.1823C18.1435 60.9167 18.4356 60.636 18.7201 60.3477C18.7769 60.3625 18.8367 60.3607 18.8925 60.3426C18.9483 60.3244 18.9977 60.2907 19.0349 60.2453C19.438 59.7853 19.7974 59.2887 20.1084 58.7621C20.1177 58.74 20.1253 58.7172 20.1312 58.6939C20.2154 58.7038 20.3004 58.6827 20.3702 58.6345C20.44 58.5863 20.4899 58.5144 20.5105 58.4321C20.5483 58.2533 20.5736 58.072 20.5864 57.8897C20.9247 57.2896 21.0827 56.6048 21.0416 55.9172C21.1014 55.8515 21.1363 55.7669 21.1402 55.6782C21.1523 54.5984 21.0144 53.5223 20.7305 52.4804C20.7055 52.4005 20.6547 52.3311 20.5861 52.2831C20.5175 52.235 20.4349 52.2111 20.3512 52.2149C20.2837 51.9556 20.1962 51.702 20.0895 51.4562C20.0651 51.406 20.0282 51.3629 19.9824 51.331C19.9365 51.2992 19.8833 51.2796 19.8277 51.2742C19.8541 51.2249 19.8745 51.1727 19.8884 51.1186C19.9435 50.8706 19.9086 50.6111 19.7898 50.3865C19.6234 50.0871 19.3848 49.8342 19.0956 49.6506C19.0989 49.5636 19.0887 49.4766 19.0653 49.3927L18.9666 49.1689C18.9327 49.1111 18.8919 49.0576 18.8453 49.0096C18.7397 48.6513 18.6586 48.2863 18.6025 47.9171C18.6099 47.83 18.6099 47.7424 18.6025 47.6554L18.5228 47.1395C18.5042 47.0039 18.4492 46.8759 18.3637 46.7691C18.2782 46.6623 18.1654 46.5805 18.0373 46.5325L17.9311 46.3315C17.9311 46.0318 17.9311 45.7321 17.9311 45.4325C17.9785 45.0551 17.9987 44.6748 17.9918 44.2945C17.9868 44.215 17.9741 44.1363 17.9538 44.0593L17.9766 42.8606C17.9766 42.8303 17.9766 42.8037 17.9766 42.7734C18.1301 42.5931 18.2218 42.3685 18.2383 42.1323C18.2627 41.8648 18.3019 41.5988 18.3559 41.3357C18.5166 41.332 18.6738 41.2885 18.8135 41.209C18.9532 41.1296 19.071 41.0167 19.1563 40.8805C19.3156 40.6302 19.456 40.376 19.5887 40.1219C19.7253 39.9512 19.8808 39.7843 20.0364 39.6249C20.2763 39.5549 20.4834 39.4015 20.6205 39.1925L20.9999 38.6387C21.1326 38.6202 21.2593 38.5716 21.3704 38.4966C21.4815 38.4217 21.574 38.3224 21.6409 38.2062C21.9583 37.6034 22.2285 36.9769 22.4489 36.3323L22.4717 36.3096C22.6934 36.0033 22.8283 35.643 22.8624 35.2664C22.8965 35.2057 22.9306 35.1412 22.961 35.073C23.2114 34.4585 23.4655 33.8439 23.7197 33.2256C23.7602 33.1166 23.7752 32.9996 23.7633 32.8839C23.7515 32.7681 23.7132 32.6566 23.6514 32.558C23.7935 32.0071 23.8962 31.4468 23.9586 30.8814C24.0333 30.0988 23.9494 29.3093 23.7121 28.5599Z" fill="#D0ECE0"/>
<path d="M34.9669 31.5219C34.99 31.3965 34.99 31.268 34.9669 31.1426L34.8873 30.7632C34.8568 30.6397 34.7995 30.5244 34.7196 30.4254C34.6396 30.3264 34.5389 30.2462 34.4245 30.1904C34.2889 28.8562 33.8782 27.5646 33.2182 26.3971C33.1651 25.9382 33.1006 25.483 33.021 25.0278C33.0101 24.932 32.9936 24.8371 32.9716 24.7433C32.9044 24.5165 32.7544 24.3232 32.5515 24.2017C32.3486 24.0801 32.1075 24.0391 31.8758 24.0868C31.6441 24.1344 31.4387 24.2673 31.3003 24.4591C31.1618 24.6509 31.1004 24.8877 31.1281 25.1226C31.1089 25.1758 31.0937 25.2303 31.0826 25.2857C30.9336 25.4006 30.8301 25.5646 30.7905 25.7485C30.6995 26.1733 30.5515 26.5792 30.4377 27.0003C30.3649 27.2978 30.3092 27.5992 30.2708 27.9031C30.1662 28.0092 30.0893 28.1395 30.047 28.2824C29.9657 28.558 29.9311 28.8452 29.9446 29.1321C29.9142 29.4735 29.8877 29.8149 29.8801 30.1601C29.8805 30.2512 29.8932 30.3418 29.918 30.4294C29.7606 31.2282 29.6742 32.0393 29.6601 32.8533C29.6601 32.9747 29.6335 33.0923 29.626 33.2137C29.5939 33.2382 29.5635 33.2648 29.5349 33.2934C29.5152 33.3131 29.4974 33.3347 29.4818 33.3579L29.4363 33.4185C29.1697 33.8082 28.9483 34.2269 28.7762 34.6665C28.7123 34.7071 28.6537 34.7555 28.6018 34.8107L27.3765 36.2218C27.3378 36.266 27.3023 36.3129 27.2703 36.3621C27.1357 36.3702 27.0052 36.4119 26.891 36.4835C26.5955 36.6831 26.3187 36.9091 26.064 37.1587C25.992 37.227 25.9313 37.3067 25.863 37.3825C25.738 37.397 25.6176 37.4384 25.5102 37.5039C24.9376 37.7999 24.4837 38.2832 24.2243 38.8733C24.0604 39.4386 23.9574 40.0197 23.917 40.6069C23.7881 41.2772 23.7881 41.9659 23.917 42.6363C23.9449 42.7647 23.9803 42.8914 24.0232 43.0156C23.8487 44.3964 24.6529 45.834 25.5406 46.8544C26.5723 47.9851 27.7819 48.9397 29.1214 49.6804C29.368 50.2267 29.9939 50.5112 30.525 50.7236C30.8387 50.8452 31.1661 50.928 31.4998 50.9702C31.8109 51.1788 32.1295 51.3685 32.4558 51.5505C32.5633 51.6215 32.6842 51.6698 32.8111 51.6925C32.9379 51.7152 33.068 51.7118 33.1935 51.6826C33.319 51.6533 33.4373 51.5987 33.541 51.5222C33.6447 51.4458 33.7317 51.3489 33.7968 51.2377C33.8618 51.1264 33.9035 51.0031 33.9193 50.8752C33.9351 50.7473 33.9246 50.6175 33.8886 50.4938C33.8525 50.3701 33.7917 50.255 33.7097 50.1556C33.6277 50.0562 33.5263 49.9745 33.4117 49.9156C33.1689 49.7753 32.9299 49.6349 32.6909 49.487C32.5736 49.3369 32.4136 49.2258 32.2319 49.1683L32.1902 49.1418C32.2249 49.0201 32.235 48.8927 32.22 48.767C32.205 48.6413 32.1653 48.5199 32.103 48.4097C31.5471 47.4465 31.0604 46.4451 30.6463 45.413C30.7981 44.6012 31.0067 43.7818 31.185 42.9777C31.2291 42.779 31.2133 42.5718 31.1395 42.3821C31.1632 42.3403 31.1848 42.2972 31.204 42.2531C31.2305 42.1811 31.2571 42.109 31.2874 42.0369L31.314 41.9611V41.98C31.3688 41.8367 31.4309 41.6961 31.4998 41.559C31.6326 41.2821 31.773 41.0089 31.9247 40.7434C32.2241 40.2068 32.5613 39.6921 32.9337 39.2033C33.0404 39.0327 33.0834 38.8298 33.0551 38.6305C33.6169 37.7991 33.9731 36.8461 34.0945 35.85C34.1438 35.7438 34.1931 35.6376 34.2386 35.5238C34.7652 34.2574 35.0136 32.8926 34.9669 31.5219Z" fill="#D0ECE0"/>
<path d="M25.3398 48.8348C25.315 48.7488 25.2752 48.6679 25.2222 48.5958C25.1323 47.1837 24.7798 45.8008 24.1828 44.518C23.5646 43.1929 23.3294 41.7213 23.5038 40.2695C23.517 40.17 23.517 40.0693 23.5038 39.9698C23.7147 39.8326 23.9116 39.675 24.0918 39.4994C24.2122 39.3739 24.2858 39.2108 24.3003 39.0375C24.3148 38.8642 24.2693 38.6911 24.1715 38.5473L24.2018 38.5284C24.2449 38.503 24.2762 38.4617 24.289 38.4134C24.3018 38.3651 24.295 38.3137 24.2701 38.2704C24.2518 38.2418 24.2266 38.2185 24.1967 38.2025C24.1668 38.1866 24.1333 38.1786 24.0994 38.1794C24.0801 38.1427 24.049 38.1138 24.0111 38.0972C23.9731 38.0807 23.9307 38.0775 23.8908 38.0883L23.8452 38.1111C23.7883 38.1338 23.7314 38.1642 23.6783 38.1908C23.5721 38.1781 23.4645 38.1898 23.3635 38.2249C22.8651 38.3928 22.3827 38.6048 21.922 38.8584C21.7976 38.8262 21.6671 38.8262 21.5427 38.8584C21.365 38.918 21.2011 39.0129 21.061 39.1374C20.9209 39.2619 20.8073 39.4134 20.7271 39.5829C20.68 39.5996 20.6353 39.6225 20.5944 39.6512C20.4443 39.7481 20.3033 39.8586 20.1733 39.9812C19.5444 40.5359 19.0458 41.2228 18.7134 41.9926C18.3809 42.7625 18.2227 43.5964 18.2501 44.4345C18.2761 45.3343 18.4677 46.2216 18.8153 47.0519C18.8184 47.1049 18.8286 47.1572 18.8457 47.2074C18.8988 47.3819 18.9595 47.5564 19.0202 47.7271C18.979 47.8088 18.955 47.8981 18.9498 47.9895C18.9446 48.0808 18.9582 48.1723 18.9898 48.2582C19.3746 49.4036 19.8675 50.5099 20.4616 51.5621C20.5104 51.6501 20.5761 51.7274 20.6551 51.7897C20.9465 52.3721 21.179 52.982 21.3492 53.6105C21.3312 53.6709 21.321 53.7334 21.3189 53.7964C21.245 53.9085 21.2103 54.0419 21.2203 54.1757C21.3301 55.2092 21.1748 56.2536 20.7689 57.2104C20.7241 57.3767 20.7372 57.5534 20.8062 57.7112C20.8751 57.8691 20.9957 57.9988 21.1482 58.079C21.1254 58.1397 21.1027 58.2042 21.0837 58.2687C21.0607 58.2675 21.0378 58.2717 21.0167 58.2809C20.9957 58.2901 20.977 58.3041 20.9623 58.3218C20.9276 58.3642 20.9026 58.4137 20.8888 58.4667C20.8751 58.5197 20.873 58.5751 20.8827 58.6291C20.8927 58.6767 20.9127 58.7217 20.9415 58.7609C20.9703 58.8002 21.0071 58.8328 21.0496 58.8567C21.0746 58.871 21.1026 58.8794 21.1315 58.8813C21.1603 58.8832 21.1891 58.8784 21.2158 58.8675C21.2426 58.8565 21.2664 58.8396 21.2856 58.818C21.3048 58.7964 21.3187 58.7707 21.3265 58.7429C21.372 58.5911 21.4175 58.4394 21.4706 58.2877C21.4706 58.2459 21.5048 58.2042 21.5199 58.1587C21.6471 58.1504 21.7703 58.1116 21.8793 58.0456C21.9882 57.9795 22.0797 57.8882 22.1458 57.7794C23.1971 56.2884 24.0003 54.6373 24.5242 52.8898C24.5763 52.8412 24.6187 52.7833 24.6494 52.7191C25.1957 51.5052 25.7305 50.1928 25.3398 48.8348ZM22.821 53.2919C22.7104 52.8645 22.5749 52.444 22.4152 52.0325C22.5254 52.0556 22.639 52.0568 22.7497 52.036C22.8603 52.0151 22.9658 51.9727 23.06 51.9111C23.0866 52.0173 23.1131 52.1273 23.1359 52.2336C23.0495 52.5916 22.9444 52.9448 22.821 53.2919Z" fill="#B4E6F4"/>
<path d="M59.5025 44.4343C60.4137 42.9918 60.8649 41.3064 60.7961 39.6016C60.7591 38.7015 60.61 37.8095 60.3522 36.9463C60.2066 36.304 59.9757 35.684 59.6657 35.1028C59.2522 34.2021 58.7743 33.3324 58.2356 32.5006C58.1646 32.3832 58.0523 32.2966 57.9207 32.2578C57.7956 31.6016 56.87 31.8557 56.8055 32.4323C56.7294 33.111 56.5819 33.7798 56.3655 34.4276C56.1606 35.0345 55.8155 35.6073 55.6523 36.2256C55.546 36.8406 55.5771 37.4714 55.7434 38.0729L55.8799 38.8316C55.8211 38.902 55.783 38.9873 55.7699 39.0782C55.5575 40.3641 55.3906 41.6538 55.3109 42.9549C55.3071 42.9978 55.3071 43.041 55.3109 43.0839C55.2503 43.3191 55.182 43.5543 55.1099 43.7894C55.0587 43.8507 55.0235 43.9237 55.0075 44.0019C55.0075 44.0891 54.9733 44.1764 54.9544 44.2636C54.7321 44.924 54.4608 45.5669 54.1426 46.1868C54.08 46.3028 54.0612 46.4374 54.0895 46.5661C53.6543 47.4427 53.3708 48.3867 53.2512 49.358C53.2376 49.4154 53.2376 49.4751 53.2512 49.5325C53.1412 49.7715 53.0274 50.0067 52.9098 50.2419C52.8455 50.3573 52.8266 50.4925 52.8567 50.6212C52.5604 50.9697 52.3058 51.3516 52.098 51.7592C52.0623 51.8368 52.0417 51.9204 52.0373 52.0057C51.8423 52.3028 51.6844 52.6225 51.567 52.9579C51.328 53.652 52.428 53.9479 52.6632 53.2575C52.9243 52.6532 53.2917 52.1008 53.7481 51.6264C53.8695 51.4785 53.9947 51.3305 54.1274 51.1788C55.103 50.4408 56.0304 49.6413 56.9041 48.7852C57.6131 48.0272 58.1935 47.1585 58.6225 46.2134C58.9452 45.912 59.2398 45.5819 59.5025 45.2271L59.5936 45.1133C59.6597 45.0085 59.6868 44.8838 59.6702 44.761C59.6535 44.6383 59.5942 44.5253 59.5025 44.4419V44.4343Z" fill="#B4E6F4"/>
<path d="M16.3226 53.8537C16.3113 53.7945 16.2836 53.7397 16.2427 53.6954C16.2018 53.6512 16.1493 53.6193 16.0912 53.6033C16.1477 52.8611 16.1286 52.1151 16.0343 51.3767C15.9902 50.7727 15.8625 50.1779 15.655 49.609C15.5491 49.3451 15.4088 49.0964 15.2377 48.8693C15.0633 48.6455 14.737 48.4369 14.6688 48.1562C14.6592 48.1093 14.64 48.0651 14.6123 48.0261C14.5846 47.9872 14.5491 47.9546 14.508 47.9303C14.4668 47.9059 14.4211 47.8905 14.3736 47.885C14.3262 47.8795 14.2781 47.884 14.2325 47.8982L12.0362 43.6914C12.0362 43.6383 12.0096 43.5852 12.0021 43.5321C11.9922 43.4859 11.9725 43.4424 11.9444 43.4044C11.9163 43.3664 11.8803 43.335 11.8389 43.3121L11.7214 43.0845C11.4976 42.6521 10.8413 43.0352 11.0651 43.4638L11.2737 43.8432C11.3003 44.177 11.3193 44.507 11.3344 44.8408C9.9954 47.1168 7.92047 49.2904 7.54114 51.9419C7.31951 52.182 7.17198 52.481 7.11629 52.803C6.91145 53.0381 7.02904 53.4364 7.18457 53.7816C7.22705 53.9014 7.28305 54.0159 7.35147 54.123L7.40458 54.233C7.70836 54.875 8.07157 55.4871 8.48946 56.0614C8.78611 56.4659 9.10525 56.8534 9.44538 57.2222L9.53262 57.408C9.67014 57.7087 9.90733 57.9526 10.204 58.0984L10.4013 58.436C10.4499 58.8172 10.6248 59.1712 10.8982 59.4412C10.91 59.5054 10.9403 59.5648 10.9855 59.6119C11.6177 60.2956 12.3166 60.9145 13.0718 61.4593C13.122 61.4887 13.1784 61.5061 13.2365 61.5103C13.2946 61.5144 13.3528 61.5051 13.4068 61.4831C13.4607 61.4611 13.5088 61.427 13.5474 61.3834C13.586 61.3398 13.6141 61.2879 13.6294 61.2317C13.7266 60.8465 13.8814 60.4782 14.0884 60.1392C14.1625 60.0577 14.2298 59.9701 14.2894 59.8775C14.8286 59.0409 15.2283 58.1224 15.4729 57.1577C15.7201 56.8535 15.9446 56.5314 16.1443 56.1942C16.3546 55.85 16.4759 55.4589 16.4971 55.0562C16.4897 54.6496 16.4311 54.2456 16.3226 53.8537Z" fill="#F2A5D6"/>
<path d="M39.4158 58.4552C39.4098 58.4368 39.4022 58.419 39.393 58.4021C39.2387 58.0346 39.0587 57.6784 38.8544 57.3361C38.6226 56.784 38.3565 56.2468 38.0578 55.7278C37.4622 54.6732 37.155 53.209 35.7818 52.9435L35.5921 52.9207C35.2038 52.5316 34.7724 52.1879 34.3062 51.8965C34.1118 51.7764 33.8928 51.7018 33.6656 51.6781C33.4383 51.6545 33.2087 51.6825 32.9937 51.76C32.6238 51.4866 32.1952 51.3034 31.7419 51.2251C31.0819 51.0582 30.4257 50.8989 29.7808 50.6865C28.8032 50.4081 27.9204 49.8677 27.2279 49.1236C27.1944 49.0098 27.13 48.9074 27.042 48.8278L26.9055 48.7102C26.7589 48.5811 26.5732 48.505 26.3782 48.494C26.2606 48.2626 26.1468 48.0312 25.9989 47.8074C25.9408 47.7946 25.8806 47.7947 25.8225 47.8076C25.7644 47.8204 25.7098 47.8458 25.6625 47.8819C25.6152 47.918 25.5764 47.964 25.5486 48.0166C25.5209 48.0692 25.505 48.1273 25.502 48.1867L25.8092 48.7443C25.7289 48.8283 25.6679 48.9289 25.6305 49.039C25.5931 49.1491 25.5803 49.266 25.593 49.3816L25.5475 49.484C25.5133 49.6171 25.5133 49.7568 25.5475 49.8899C25.5778 50.0378 25.6082 50.1896 25.6347 50.3413C25.6496 50.3974 25.6726 50.4511 25.703 50.5006C25.5478 51.5833 25.6268 52.6867 25.9344 53.7363C25.9486 53.7849 25.9677 53.8319 25.9913 53.8766C25.9958 53.9707 26.0059 54.0645 26.0216 54.1574C26.162 54.9729 26.7803 55.7505 27.4479 56.3916C27.5465 56.5471 27.6414 56.7027 27.7438 56.8544C27.9333 57.1463 28.2034 57.3769 28.5214 57.5182C28.6811 57.8589 28.9365 58.1458 29.2564 58.3438C29.5764 58.5419 29.9471 58.6425 30.3232 58.6335C30.3915 58.6335 30.4636 58.6335 30.5357 58.6335C30.831 58.7528 31.1323 58.8566 31.4385 58.9445C31.9661 59.1571 32.5177 59.3049 33.081 59.3845C33.2403 59.5052 33.4264 59.5859 33.6234 59.6197C34.0801 59.6637 34.5171 59.8272 34.8904 60.0939C35.0383 60.2097 35.2001 60.3066 35.3721 60.3822C35.4088 60.4938 35.4653 60.5979 35.539 60.6894L35.6263 60.807L35.797 61.0422C35.781 61.1837 35.816 61.3262 35.8956 61.4443L36.6884 62.5292C36.7516 62.613 36.8241 62.6894 36.9046 62.7568C36.9881 62.9123 37.0677 63.0716 37.136 63.2347C37.2218 63.3816 37.3559 63.4942 37.5153 63.5534C37.4844 63.857 37.4743 64.1625 37.485 64.4676C37.485 64.6688 37.5649 64.8617 37.7072 65.004C37.8495 65.1463 38.0424 65.2262 38.2437 65.2262C38.3776 65.2149 38.5073 65.1734 38.623 65.1048H38.642C38.7245 65.0588 38.7967 64.9964 38.8541 64.9213C38.9115 64.8463 38.9529 64.7603 38.9758 64.6686C39.1648 63.905 39.2917 63.1274 39.3551 62.3433L39.3778 62.2826C39.4586 61.9949 39.4716 61.6924 39.4158 61.3988C39.5878 61.1489 39.6924 60.8588 39.7192 60.5567C39.7926 59.8419 39.6883 59.12 39.4158 58.4552Z" fill="#F2A5D6"/>
<path d="M67.1448 51.0651C66.959 50.6531 66.7022 50.2769 66.3861 49.9537C65.834 49.4024 65.1614 48.9868 64.4212 48.7398C63.8257 48.5312 63.2832 48.5084 62.7901 48.0912C62.366 47.6993 61.9669 47.2812 61.5952 46.8394C61.618 46.7597 61.6369 46.6801 61.6635 46.6004C61.7124 46.455 61.7285 46.3005 61.7106 46.1481C61.6928 45.9957 61.6414 45.8491 61.5601 45.7189C61.4789 45.5887 61.3699 45.4781 61.2408 45.3951C61.1118 45.3121 60.9659 45.2586 60.8138 45.2386V44.5141C60.8138 44.4135 60.7738 44.317 60.7027 44.2459C60.6316 44.1747 60.5351 44.1348 60.4345 44.1348C60.3339 44.1348 60.2374 44.1747 60.1662 44.2459C60.0951 44.317 60.0551 44.4135 60.0551 44.5141V44.6279C60.0551 44.6279 60.0362 44.6279 60.0286 44.6507C59.949 44.6721 59.8785 44.7188 59.8279 44.7838C59.7773 44.8489 59.7492 44.9286 59.7479 45.011L59.7251 45.5421C59.6054 45.6706 59.5172 45.8251 59.4672 45.9935C59.4672 46.0314 59.4672 46.0693 59.4368 46.1073C59.386 46.1114 59.3367 46.1269 59.2927 46.1528C59.1897 46.2008 59.0949 46.2648 59.012 46.3425C58.9279 46.4191 58.8551 46.5072 58.7958 46.6042C58.6917 46.7736 58.6329 46.9669 58.6251 47.1656C58.4518 47.3073 58.3271 47.4996 58.2685 47.7156C57.9688 48.7512 57.5591 50.371 57.6616 51.7593C57.5187 51.8569 57.4058 51.9923 57.3355 52.1504C57.2651 52.3085 57.2401 52.483 57.2633 52.6545C57.3468 53.8741 57.6704 55.0653 58.2154 56.1595C58.1726 56.1927 58.138 56.2353 58.1144 56.284C58.0907 56.3326 58.0785 56.3861 58.0788 56.4402V57.2482C58.0706 57.3759 58.0834 57.504 58.1168 57.6275C58.1476 57.7178 58.1952 57.8015 58.2571 57.8741C58.3242 57.9468 58.4092 58.0004 58.5037 58.0296C58.5717 58.0504 58.6443 58.0504 58.7123 58.0296C58.7313 58.0562 58.7502 58.0903 58.7692 58.1131L58.8109 58.1814C58.9494 58.4052 59.1612 58.5741 59.4103 58.6593L59.4785 58.6935C59.8389 59.3529 60.2538 59.9809 60.719 60.5711C61.4776 61.6067 63.1391 60.8177 62.8698 59.8125C63.0367 59.7665 63.1851 59.6697 63.2946 59.5356L64.8119 57.6389C64.9371 57.4872 65.0623 57.3317 65.1913 57.1723C65.252 57.0965 65.3126 57.0206 65.3695 56.941C65.485 56.7808 65.5471 56.5884 65.5471 56.3909C65.5471 56.1935 65.485 56.0011 65.3695 55.8409C65.5327 55.5716 65.7109 55.3098 65.9006 55.0557C66.102 55.0724 66.304 55.0318 66.4833 54.9385C66.6625 54.8452 66.8116 54.703 66.9134 54.5284C67.2312 54.0285 67.4202 53.4577 67.4634 52.8669C67.7404 52.1652 67.6873 51.4482 67.1448 51.0651Z" fill="#F2A5D6"/>
<path d="M34.5957 60.3979C34.4635 60.2811 34.3059 60.1966 34.1354 60.1512C33.9648 60.1058 33.7861 60.1006 33.6133 60.1361C33.5028 60.0336 33.3741 59.9526 33.2339 59.8972C32.8446 59.7336 32.4471 59.5905 32.0428 59.4685L31.8114 59.3964L31.6597 59.3547C31.4625 59.3016 31.2576 59.2523 31.0528 59.2068L30.8821 59.1726C30.7114 59.1385 30.5369 59.1119 30.3624 59.0816C30.312 58.9195 30.2004 58.7834 30.0514 58.7023C29.5525 58.4586 29.0675 58.1876 28.5985 57.8905C28.1507 57.6133 27.7347 57.2876 27.3581 56.9194C26.5593 56.16 26.0429 55.1513 25.8939 54.0593C25.8676 53.9631 25.8225 53.873 25.7614 53.7943C25.7002 53.7155 25.6241 53.6496 25.5374 53.6003C25.4508 53.551 25.3552 53.5192 25.2563 53.5068C25.1573 53.4945 25.0569 53.5017 24.9607 53.5282C24.8079 53.5701 24.6728 53.6603 24.5757 53.7855C24.4786 53.9107 24.4247 54.064 24.4221 54.2224C24.2957 54.2854 24.1888 54.3814 24.1127 54.5003C24.0365 54.6192 23.994 54.7565 23.9897 54.8976C23.9999 55.0248 23.9897 55.1529 23.9593 55.2769V55.1973C23.9593 55.2352 23.9593 55.2769 23.9403 55.3186C23.9214 55.3604 23.9403 55.4173 23.9138 55.4666C23.8662 55.697 23.8028 55.9239 23.7241 56.1456C23.7052 56.2025 23.6824 56.2594 23.6634 56.3201V56.339C23.6179 56.4377 23.5686 56.5401 23.5193 56.6387C23.4082 56.8562 23.2814 57.0654 23.14 57.2646C23.1096 57.3101 23.0866 57.36 23.0717 57.4126C22.9176 57.5058 22.7916 57.6389 22.7068 57.7978C22.622 57.9567 22.5816 58.1355 22.5899 58.3154C22.6582 60.1817 22.7796 62.1352 23.8569 63.7322C24.8469 65.204 27.0395 65.6023 27.3885 67.4231C27.4156 67.6262 27.5085 67.8148 27.6531 67.9601C27.7977 68.1053 27.9858 68.1992 28.1888 68.2273C28.2734 68.7783 28.4668 69.307 28.7578 69.7825C29.4293 70.7991 30.7759 70.2832 31.7545 70.7801C31.8983 70.8546 32.0561 70.898 32.2177 70.9077C32.3793 70.9173 32.5412 70.8929 32.6928 70.836C32.8444 70.7792 32.9823 70.6912 33.0978 70.5776C33.2132 70.4641 33.3035 70.3276 33.3629 70.177C33.6074 70.0996 33.8186 69.9419 33.9622 69.7294C34.8541 68.4673 35.4327 67.011 35.6503 65.4809C35.6855 65.2565 35.67 65.0271 35.6047 64.8095C35.7603 63.1935 35.7072 61.3803 34.5957 60.3979Z" fill="#D0ECE0"/>
<path d="M24.459 52.3704L24.4325 52.3363C24.4072 52.2579 24.3768 52.1782 24.3414 52.0973C24.2421 51.9267 24.0802 51.8015 23.89 51.7483C23.7936 51.7294 23.6944 51.7294 23.598 51.7483C23.5859 51.6776 23.5615 51.6095 23.5259 51.5473C23.423 51.3782 23.2607 51.2537 23.0707 51.1983C22.9732 51.1714 22.8713 51.1642 22.7709 51.1772C22.6706 51.1902 22.5739 51.2232 22.4865 51.2742C22.3151 51.3744 22.1898 51.5378 22.1375 51.7294C22.1186 51.8545 22.1034 51.9797 22.0882 52.1087C22.0322 52.2152 22.0023 52.3335 22.001 52.4539V53.5919C22.0053 53.7534 22.0594 53.9096 22.1558 54.0393C22.2522 54.1689 22.3862 54.2657 22.5396 54.3164C22.4427 54.4736 22.4064 54.6608 22.4377 54.8429C22.4689 55.025 22.5655 55.1894 22.7094 55.3053C22.8532 55.4212 23.0344 55.4806 23.2189 55.4725C23.4035 55.4643 23.5787 55.3891 23.7118 55.2609C23.988 54.9705 24.2137 54.6359 24.3794 54.2709C24.5757 53.8593 24.7038 53.4186 24.7587 52.966C24.7611 52.8498 24.735 52.7348 24.6828 52.631C24.6305 52.5272 24.5537 52.4378 24.459 52.3704Z" fill="#B4E6F4"/>
<path d="M28.2372 69.0798C27.8493 68.3732 27.3512 67.733 26.7617 67.1832C26.314 66.6938 25.893 66.1779 25.4947 65.6469C25.4771 65.567 25.4426 65.4918 25.3935 65.4264C25.3445 65.361 25.2819 65.3068 25.2102 65.2676L25.1647 65.2107C25.0863 65.0883 24.9652 64.9995 24.8249 64.9616C24.6847 64.9237 24.5353 64.9395 24.406 65.0058C24.3481 65.2699 24.2314 65.5176 24.0646 65.7303C24.0192 65.7414 23.9757 65.7593 23.9356 65.7834C23.8113 65.86 23.7205 65.9808 23.6818 66.1217C23.6431 66.2625 23.6592 66.4127 23.727 66.5421C23.6557 66.646 23.5923 66.755 23.5373 66.8683C23.268 67.4601 23.0404 68.3857 23.7877 68.7233C25.0173 69.2533 26.2988 69.6538 27.6114 69.9181C27.719 69.9408 27.8308 69.9321 27.9337 69.8933C28.0366 69.8544 28.1262 69.787 28.192 69.6988C28.2578 69.6107 28.297 69.5056 28.305 69.3959C28.313 69.2863 28.2895 69.1766 28.2372 69.0798Z" fill="#B4E6F4"/>
<path d="M60.4162 60.9809C60.3404 60.9126 60.2607 60.8482 60.1811 60.7875C60.1338 60.5503 60.073 60.316 59.999 60.0857C59.9565 59.9421 59.8602 59.8205 59.7301 59.7462C59.6 59.672 59.4463 59.6509 59.301 59.6874C59.2219 59.7156 59.1486 59.758 59.0848 59.8126C58.9478 59.8611 58.8335 59.9582 58.7636 60.0855C58.6936 60.2128 58.6729 60.3614 58.7055 60.503C58.7055 60.5409 58.7055 60.575 58.7244 60.613C58.7224 60.6446 58.7224 60.6762 58.7244 60.7078C58.7244 60.8102 58.7472 60.9127 58.7548 61.0151C58.7548 61.2237 58.7813 61.4285 58.7851 61.6334C58.7921 62.0463 58.7744 62.4592 58.732 62.87C58.731 62.9817 58.7638 63.0911 58.826 63.1839C58.8883 63.2766 58.9772 63.3484 59.081 63.3897C59.185 63.4324 59.2991 63.4441 59.4095 63.4232C59.5199 63.4023 59.6219 63.3498 59.7031 63.2721L59.9193 63.0559C60.0517 63.0019 60.1578 62.8985 60.2152 62.7676L60.2949 62.6879C60.5414 62.4451 60.8942 62.1872 60.8904 61.8079C60.8728 61.6448 60.8216 61.4871 60.74 61.3447C60.6584 61.2024 60.5481 61.0785 60.4162 60.9809Z" fill="#B4E6F4"/>
<path d="M23.9326 64.8536C23.9631 64.7755 23.9765 64.6917 23.9719 64.608C23.9673 64.5242 23.9449 64.4424 23.9061 64.3681C23.7923 63.8788 23.4243 63.5449 23.1474 63.1428C22.7639 62.5631 22.5134 61.9057 22.4137 61.2178C22.314 60.5299 22.3677 59.8284 22.5708 59.1637C22.5972 59.055 22.5914 58.9409 22.5541 58.8355C22.5168 58.73 22.4496 58.6377 22.3607 58.5697C22.2719 58.5018 22.1652 58.4612 22.0536 58.4528C21.9421 58.4444 21.8305 58.4687 21.7325 58.5226C19.4945 59.6606 17.7837 61.6141 16.0426 63.3667C15.9926 63.4164 15.9529 63.4755 15.9258 63.5406C15.8987 63.6057 15.8848 63.6755 15.8848 63.746C15.8848 63.8165 15.8987 63.8863 15.9258 63.9514C15.9529 64.0165 15.9926 64.0756 16.0426 64.1253C16.0222 64.234 16.0366 64.3463 16.0835 64.4463C16.1305 64.5464 16.2077 64.6291 16.3043 64.6829C17.8899 65.6426 19.4376 66.6668 20.9814 67.6948C21.1077 67.765 21.2557 67.7853 21.3962 67.7516C21.5367 67.7179 21.6594 67.6326 21.7401 67.5127C21.7761 67.5463 21.8103 67.5817 21.8425 67.619C21.8956 67.6953 21.9644 67.7594 22.0441 67.8071C22.1239 67.8549 22.2129 67.8851 22.3053 67.8959L22.3508 67.9262C22.4544 67.9709 22.569 67.9836 22.6799 67.9627C22.7907 67.9417 22.8928 67.8881 22.9729 67.8086C23.6128 67.0757 23.9858 66.1479 24.0312 65.1761C24.037 65.0604 24.0021 64.9463 23.9326 64.8536Z" fill="#F2A5D6"/>
<path d="M55.5184 36.3212C57.3657 34.4245 56.5881 31.4733 55.1998 29.5805C55.0224 29.3476 54.7925 29.1599 54.5288 29.0327C54.2652 28.9054 53.9752 28.8423 53.6825 28.8484C53.5452 28.7608 53.3956 28.6943 53.2386 28.6511C53.1765 28.4897 53.0823 28.3426 52.9617 28.2187C52.7732 27.9451 52.5188 27.7233 52.222 27.5738C51.7732 27.3888 51.3133 27.2317 50.8451 27.1035C50.762 26.9045 50.6332 26.728 50.4691 26.5883C50.305 26.4485 50.1102 26.3495 49.9005 26.2993H49.8664C49.8171 26.2993 49.7678 26.2993 49.7184 26.2993C49.6096 26.2403 49.4936 26.1957 49.3733 26.1665C49.0736 25.8782 48.7891 25.5748 48.4894 25.2903C48.4705 24.9266 48.3098 24.5847 48.0418 24.3381C47.6928 24.0005 47.3325 23.6781 46.9645 23.3633C46.6497 22.4908 45.9821 21.7435 45.5041 20.9355C45.432 20.7535 45.3524 20.5562 45.2689 20.3893C45.2069 20.2491 45.1209 20.1207 45.0148 20.01C44.6768 18.669 44.1668 17.3774 43.4974 16.1674C43.3775 15.9299 43.1899 15.7333 42.9584 15.6023C42.7268 15.4713 42.4616 15.4119 42.1963 15.4315C41.9507 15.1957 41.6367 15.0438 41.2994 14.9974C40.9621 14.9511 40.6188 15.0127 40.3186 15.1735C38.422 16.3381 35.8426 18.2309 34.5187 20.4424C34.1628 20.6736 33.8356 20.9461 33.5438 21.2542C33.1076 21.6335 32.6865 21.9939 32.2769 22.3922C31.6244 23.0295 31.6927 24.3571 32.5841 24.7744L32.8231 24.8995C33.4355 25.8094 33.9807 26.7628 34.4542 27.7521C34.4811 27.8082 34.517 27.8594 34.5604 27.9038C34.9859 28.9579 35.117 30.1078 34.9397 31.2306C34.925 31.3076 34.9257 31.3868 34.9417 31.4635C34.9578 31.5403 34.989 31.6131 35.0335 31.6776C35.078 31.7422 35.1348 31.7973 35.2008 31.8398C35.2668 31.8822 35.3405 31.9111 35.4177 31.9247C35.4031 31.9896 35.3942 32.0556 35.3911 32.122C35.3646 33.6659 34.8639 35.1301 34.3594 36.5715C34.0787 37.3681 33.8093 38.1609 33.6007 38.9613C33.5212 39.0324 33.4533 39.1157 33.3997 39.2079C32.8374 40.1257 32.3842 41.1059 32.0493 42.1287C31.7222 42.4931 31.4833 42.9279 31.3513 43.3995C31.2454 43.8461 31.2338 44.3099 31.3171 44.7613C31.1843 44.9699 31.1133 45.2119 31.1123 45.4592C31.1236 45.8505 31.2072 46.2363 31.3589 46.5972C31.5239 46.9929 31.738 47.3663 31.9961 47.7087C31.9389 47.8735 31.9288 48.051 31.967 48.2212C32.0052 48.3914 32.0902 48.5476 32.2124 48.6722L33.6538 50.1629C34.1077 50.6687 34.597 51.1416 35.118 51.5778C35.4934 51.8584 35.8948 52.1023 36.3167 52.3062C36.246 52.4277 36.2041 52.5638 36.1941 52.704C36.1841 52.8442 36.2063 52.9848 36.259 53.1152C36.3118 53.2455 36.3936 53.362 36.4982 53.4559C36.6029 53.5497 36.7277 53.6184 36.863 53.6566C37.1095 53.74 37.3561 53.8159 37.6026 53.8918C37.5247 54.0973 37.4982 54.3188 37.5253 54.5369C37.5524 54.7551 37.6323 54.9633 37.7582 55.1435L38.2854 56.0008C38.4309 56.2367 38.6382 56.4282 38.8848 56.5547L39.2262 56.9909C39.1386 57.1556 39.0856 57.3365 39.0706 57.5224C39.0556 57.7083 39.0789 57.8954 39.1389 58.072C39.7421 60.0407 40.0228 63.3295 38.7937 65.1048C38.6011 65.3673 38.5095 65.6905 38.5358 66.0152C38.4644 66.0406 38.4024 66.0869 38.3575 66.1479C38.2203 66.0123 38.0935 65.8664 37.9782 65.7117L37.9213 65.6055C37.9096 65.5883 37.8969 65.5719 37.8834 65.5562C37.621 65.0379 37.3991 64.5002 37.2195 63.9478C37.1937 63.8601 37.1372 63.7847 37.0602 63.7354C37.0541 63.4388 37.0237 63.1432 36.9692 62.8515C36.8743 62.3736 36.146 62.5746 36.2371 63.0526C36.3935 64.0762 36.2771 65.123 35.8995 66.0872C35.8537 66.129 35.8208 66.183 35.8046 66.2428L35.7553 66.4324C35.7104 66.431 35.6657 66.4398 35.6246 66.458C35.5835 66.4762 35.547 66.5035 35.5178 66.5377C35.4887 66.572 35.4676 66.6123 35.4562 66.6558C35.4448 66.6993 35.4433 66.7448 35.4518 66.789C35.4518 66.9104 35.4746 67.0356 35.4822 67.1683C35.0232 68.257 34.5225 69.3267 34.0331 70.4002C33.8814 70.4343 33.7259 70.4723 33.5742 70.5178C33.1076 70.6619 33.3048 71.3941 33.7752 71.2499C33.9231 71.2044 34.0711 71.1702 34.2152 71.1361C34.2678 71.156 34.325 71.1606 34.3801 71.1492C34.4352 71.1377 34.4859 71.1108 34.5263 71.0716H34.5718C34.5718 71.1722 34.6118 71.2687 34.6829 71.3399C34.754 71.411 34.8505 71.451 34.9511 71.451C35.3113 71.471 35.6706 71.3979 35.9943 71.2385C36.2832 71.3115 36.5884 71.2834 36.8592 71.1589L37.1475 71.0451C37.2536 71.1097 37.3669 71.1619 37.4851 71.2006C38.4726 71.5234 39.5152 71.6435 40.5503 71.5535C41.5855 71.4636 42.5917 71.1655 43.5088 70.6771C43.6759 70.784 43.8644 70.8529 44.061 70.8792C44.2576 70.9054 44.4575 70.8882 44.6468 70.8289C45.6224 70.5259 46.5778 70.161 47.507 69.7364C47.799 69.7643 48.0924 69.6993 48.3453 69.5505L48.6639 69.3684C48.7474 69.3203 48.8261 69.2644 48.8991 69.2015C49.5005 69.1369 50.0947 69.0175 50.6744 68.845C50.98 68.8874 51.2912 68.8589 51.584 68.7615C51.8767 68.6642 52.1431 68.5006 52.3624 68.2836C52.4838 68.1618 52.5861 68.0224 52.6659 67.8701C52.748 67.8285 52.8267 67.7803 52.901 67.7259C52.9877 67.6814 53.061 67.6146 53.1135 67.5325C53.1788 67.4591 53.2245 67.3704 53.2462 67.2745C53.2745 67.1754 53.2745 67.0702 53.2462 66.9711C53.2428 66.8708 53.2112 66.7735 53.1552 66.6904C53.0559 66.5197 52.8939 66.3945 52.7038 66.3414H52.6696C52.5321 65.9797 52.3346 65.6437 52.0855 65.3475C51.9702 65.2091 51.8249 65.0989 51.6606 65.0251C51.5822 64.822 51.5164 64.6142 51.4634 64.403C51.171 63.0826 51.0537 61.7294 51.1144 60.3783C51.1221 60.1366 51.0649 59.8973 50.9489 59.6852C50.8328 59.473 50.662 59.2959 50.4543 59.172C50.7123 57.374 51.0765 55.5912 51.471 53.8045C51.5757 53.4961 51.6344 53.1741 51.6455 52.8486C51.6552 52.6757 51.6307 52.5027 51.5734 52.3393C51.5161 52.1759 51.4272 52.0254 51.3116 51.8965C52.0259 50.9871 52.5894 49.9689 52.9807 48.8808C53.1578 48.458 53.3049 48.0232 53.4207 47.5797C53.446 47.4815 53.4625 47.3812 53.47 47.28C53.47 47.2307 53.5042 47.1852 53.5193 47.1359C54.1874 45.8571 54.6726 44.4908 54.9608 43.0771C54.9987 42.8816 54.9987 42.6807 54.9608 42.4853C55.469 40.4726 55.6572 38.3924 55.5184 36.3212Z" fill="#F1D4B2"/>
<path opacity="0.52" d="M53.2104 40.7936C54.7415 40.1543 55.5653 38.6362 55.0504 37.4028C54.5355 36.1694 52.8768 35.6877 51.3456 36.3269C49.8145 36.9662 48.9907 38.4843 49.5056 39.7177C50.0206 40.9511 51.6793 41.4328 53.2104 40.7936Z" fill="#EFA2D3"/>
<path opacity="0.52" d="M32.2851 41.8825C32.1372 42.2391 31.9893 42.5994 31.8375 42.956C31.7048 43.4757 31.5682 43.9954 31.4316 44.515C32.1258 45.7403 33.7076 45.6872 34.0073 45.6872C35.665 45.6872 37.0078 44.6023 37.0078 43.267C37.0078 41.8597 35.2894 40.9152 34.0073 40.8469C33.5285 40.8203 33.0496 40.8979 32.6038 41.0745" fill="#EFA2D3"/>
<path d="M37.0757 72.0801C30.1577 72.0801 23.3951 70.0287 17.643 66.1853C11.8908 62.3418 7.40762 56.879 4.76022 50.4876C2.11281 44.0962 1.42013 37.0633 2.76976 30.2782C4.1194 23.4931 7.45074 17.2606 12.3425 12.3689C17.2343 7.4771 23.4668 4.14577 30.2518 2.79613C37.0369 1.4465 44.0698 2.13918 50.4612 4.78659C56.8526 7.43399 62.3155 11.9172 66.1589 17.6693C70.0023 23.4214 72.0537 30.1841 72.0537 37.1021C72.0437 46.3758 68.3553 55.2667 61.7978 61.8242C55.2403 68.3817 46.3494 72.0701 37.0757 72.0801ZM37.0757 3.26203C30.3828 3.26203 23.8402 5.24672 18.2752 8.96511C12.7102 12.6835 8.37286 17.9686 5.81158 24.1521C3.25031 30.3355 2.58017 37.1396 3.88589 43.7039C5.19162 50.2683 8.41457 56.298 13.1472 61.0306C17.8798 65.7632 23.9095 68.9862 30.4738 70.2919C37.0382 71.5976 43.8423 70.9275 50.0257 68.3662C56.2092 65.8049 61.4943 61.4676 65.2127 55.9026C68.9311 50.3376 70.9158 43.795 70.9158 37.1021C70.9057 28.1302 67.3372 19.5287 60.9932 13.1846C54.6491 6.84058 46.0476 3.27207 37.0757 3.26203Z" fill="#5E6468"/>
<path d="M39.1284 48.4851C39.1464 48.5156 39.1667 48.5448 39.1891 48.5723H39.208L39.2801 48.633C40.8883 49.4896 42.7547 49.7271 44.5262 49.3006L44.6514 49.2703L44.788 49.2362C46.5587 48.8338 48.1211 47.7976 49.1806 46.3229C49.1996 46.2919 49.2149 46.2588 49.2261 46.2243C49.2261 46.2243 49.2261 46.2243 49.2261 46.1977C49.2299 46.1637 49.2299 46.1293 49.2261 46.0953C49.2235 46.0581 49.2172 46.0212 49.2072 45.9853C49.2088 45.9778 49.2088 45.97 49.2072 45.9625V45.9246C49.1993 45.9069 49.1891 45.8903 49.1768 45.8753C49.158 45.8434 49.1336 45.8151 49.1048 45.7918H49.0858C49.0628 45.7731 49.0372 45.7578 49.0099 45.7463H48.9872C48.9543 45.7322 48.92 45.722 48.8847 45.716H48.7558C47.9223 45.841 47.0727 45.8062 46.2522 45.6135C45.486 45.3212 44.6551 45.2412 43.8472 45.3822H43.7676L43.6955 45.4011L43.6196 45.4239C42.8343 45.6617 42.1279 46.1073 41.575 46.7136C40.9313 47.2526 40.1912 47.6645 39.3939 47.9275L39.3067 47.9692H39.2839C39.2548 47.9902 39.2281 48.0144 39.2042 48.0413C39.1856 48.0677 39.1691 48.0956 39.1549 48.1247V48.1475C39.1421 48.1831 39.1332 48.22 39.1284 48.2575C39.1265 48.2853 39.1265 48.3131 39.1284 48.3409C39.1284 48.3409 39.1284 48.3409 39.1284 48.3675C39.1284 48.394 39.1284 48.3865 39.1284 48.394C39.1339 48.4257 39.1441 48.4564 39.1587 48.4851C39.1587 48.4851 39.1284 48.4775 39.1284 48.4851ZM42.163 47.2788C42.6212 46.7668 43.2119 46.3914 43.87 46.1939H43.9155H43.961C44.6382 46.0745 45.3351 46.1441 45.9753 46.395C46.1308 46.4443 46.2939 46.4822 46.457 46.5164C44.9475 46.9713 43.409 47.3236 41.852 47.5709C41.9696 47.4609 42.0758 47.3736 42.1744 47.2788H42.163ZM44.7083 47.863C45.4973 47.6771 46.3167 47.4495 47.1246 47.1802C46.3695 47.7583 45.5009 48.1706 44.5755 48.3902L44.439 48.4206L44.3176 48.4509C43.3513 48.6792 42.3469 48.6948 41.374 48.4965C42.2958 48.3637 43.4641 48.1627 44.7197 47.863H44.7083Z" fill="#F2A5D6"/>
<path d="M65.2913 49.183L64.5895 48.8985C66.93 43.0872 66.0613 41.2171 65.0523 39.0359C64.9044 38.7173 64.7564 38.3911 64.6123 38.0535C64.1584 37.0375 63.5963 36.0735 62.9356 35.1781C62.5563 34.6395 62.1201 33.9681 61.5738 33.1222C59.4855 29.8764 57.6395 26.4811 56.0508 22.9637L56.4301 22.0723C58.1101 25.7477 60.0417 29.3029 62.2111 32.7125C62.7536 33.5508 63.1822 34.1919 63.5653 34.7533C64.256 35.6893 64.8424 36.698 65.314 37.7614C65.4506 38.0914 65.5985 38.4062 65.7427 38.7135C66.7782 40.9553 67.7531 43.0644 65.2913 49.183Z" fill="#5E6468" stroke="#5E6468" stroke-width="0.205322" stroke-miterlimit="10"/>
<path d="M34.5462 36.2559L33.9014 36.6352L34.5083 37.6101C34.5746 37.6609 34.6551 37.69 34.7386 37.6934C34.8221 37.6968 34.9046 37.6743 34.9749 37.629C35.042 37.5844 35.0947 37.5212 35.1264 37.447C35.158 37.3729 35.1674 37.2911 35.1532 37.2118L34.5462 36.2559Z" fill="#5D94BA"/>
<path d="M37.0419 34.8255L35.7597 34.192L35.0655 33.8848C35.0142 34.0006 34.9748 34.1213 34.9479 34.2451C34.8897 34.5097 34.734 34.7427 34.5117 34.8976L34.8076 35.2314L34.561 35.6297C34.6597 35.7435 34.8873 35.9597 35.1262 36.1911C35.3652 36.4225 35.57 36.6159 35.6459 36.7032C35.7241 36.7746 35.8274 36.8123 35.9332 36.808C36.039 36.8037 36.1389 36.7579 36.2111 36.6804C36.265 36.6131 36.2943 36.5295 36.2943 36.4433C36.2943 36.3572 36.265 36.2735 36.2111 36.2063C36.1125 36.0925 35.8849 35.8725 35.6421 35.6411L35.2324 35.2428C35.3403 35.1285 35.4334 35.001 35.5094 34.8634L36.6701 35.4893C36.7591 35.5366 36.8633 35.5466 36.9597 35.5171C37.0561 35.4876 37.1368 35.4209 37.1841 35.3319C37.2314 35.2429 37.2414 35.1387 37.2118 35.0423C37.1823 34.9459 37.1157 34.8652 37.0267 34.8179L37.0419 34.8255Z" fill="#5D94BA"/>
<path d="M52.3299 30.7519L50.9529 29.9933L50.3005 29.7012C49.9167 30.5657 49.247 31.2716 48.4038 31.7002C46.4237 32.6789 44.1364 31.4233 44.1136 31.4082L43.9732 31.6471L43.7381 32.0492C43.6557 32.1709 43.581 32.2976 43.5143 32.4286C43.3777 32.7168 43.2222 32.9824 43.097 33.2479C43.0721 33.301 43.0579 33.3584 43.0552 33.4169C43.0525 33.4755 43.0613 33.534 43.0812 33.5891C43.1011 33.6442 43.1317 33.6949 43.1711 33.7382C43.2106 33.7815 43.2583 33.8167 43.3113 33.8416C43.3644 33.8665 43.4218 33.8807 43.4803 33.8834C43.5389 33.8861 43.5974 33.8772 43.6525 33.8573C43.7076 33.8374 43.7583 33.8069 43.8016 33.7674C43.8449 33.7279 43.8801 33.6803 43.905 33.6272C43.9695 33.4679 44.1288 33.1265 44.2843 32.7927C44.3526 32.6524 44.4133 32.5158 44.474 32.3906C44.6105 32.4437 44.7623 32.4968 44.9292 32.5461C44.9064 32.7017 44.8798 32.88 44.8571 33.062C44.8343 33.2441 44.766 33.6614 44.7319 33.889C44.7484 33.9798 44.7946 34.0626 44.8633 34.1244C44.9319 34.1862 45.0191 34.2235 45.1112 34.2304C45.1866 34.236 45.262 34.2206 45.329 34.1857C45.396 34.1509 45.452 34.098 45.4906 34.0331C45.5209 33.8662 45.5702 33.5172 45.6195 33.1682C45.6423 33.0127 45.6613 32.861 45.6802 32.7282C45.8699 32.7611 46.0671 32.7877 46.272 32.8079L46.4616 34.1052C46.5005 34.18 46.5616 34.2408 46.6366 34.2792C46.7116 34.3177 46.7967 34.3318 46.8801 34.3197C46.9635 34.3077 47.041 34.2699 47.102 34.2118C47.1629 34.1536 47.2043 34.0779 47.2203 33.9952L47.0458 32.8155C47.2687 32.8024 47.4905 32.7745 47.7096 32.732L48.1269 34.128C48.1764 34.1962 48.2462 34.2469 48.3263 34.2729C48.4065 34.299 48.4928 34.2989 48.5729 34.2728C48.653 34.2466 48.7227 34.1958 48.7721 34.1275C48.8215 34.0592 48.8479 33.977 48.8476 33.8928L48.4 32.5158C48.511 32.4758 48.6199 32.4303 48.7262 32.3792C48.8135 32.3375 48.8856 32.2882 48.9652 32.2427L49.7239 33.449C49.7569 33.4913 49.7979 33.5266 49.8446 33.553C49.8913 33.5794 49.9428 33.5962 49.996 33.6026C50.0493 33.6089 50.1033 33.6046 50.1549 33.59C50.2065 33.5753 50.2547 33.5506 50.2967 33.5172C50.3606 33.4588 50.4025 33.3803 50.4156 33.2948C50.4288 33.2092 50.4122 33.1217 50.3688 33.0469L49.6101 31.8178C49.7125 31.7344 49.8073 31.6471 49.8984 31.5599C50.0122 31.6775 50.1791 31.8406 50.3574 32.0075C50.5357 32.1744 50.8012 32.4323 50.8771 32.5196C50.908 32.5624 50.9474 32.5982 50.993 32.6248C51.0385 32.6515 51.0891 32.6683 51.1415 32.6743C51.1939 32.6803 51.247 32.6753 51.2974 32.6596C51.3478 32.6439 51.3943 32.6179 51.434 32.5831C51.4738 32.5484 51.5058 32.5058 51.5282 32.458C51.5505 32.4102 51.5626 32.3583 51.5638 32.3056C51.5649 32.2528 51.555 32.2004 51.5347 32.1517C51.5145 32.103 51.4843 32.059 51.4461 32.0227C51.3474 31.9089 51.1198 31.6927 50.8808 31.4613C50.6419 31.2299 50.5015 31.0819 50.3991 30.9909C50.4788 30.8847 50.5546 30.7785 50.6191 30.6798L51.9012 31.4385C51.9981 31.4905 52.1114 31.5025 52.2171 31.472C52.3227 31.4415 52.4122 31.371 52.4665 31.2754C52.5096 31.1861 52.5195 31.0844 52.4945 30.9885C52.4695 30.8926 52.4111 30.8087 52.3299 30.7519Z" fill="#5D94BA"/>
<path d="M42.2811 30.3352C42.2479 30.2975 42.2225 30.2536 42.2065 30.206C42.1904 30.1584 42.1839 30.1081 42.1875 30.0579C42.191 30.0078 42.2044 29.9589 42.227 29.914C42.2496 29.8692 42.2809 29.8292 42.319 29.7966C43.4363 28.8247 44.7048 28.0419 46.0744 27.4788C46.6408 27.243 47.2517 27.133 47.8648 27.1564C48.204 27.1945 48.5376 27.2721 48.8587 27.3878L49.6173 27.6078C50.0725 27.7406 50.4443 27.8392 50.6833 27.8999C50.7439 27.9592 50.7865 28.0346 50.806 28.1172C50.8255 28.1998 50.8211 28.2863 50.7933 28.3665C50.7662 28.4306 50.7253 28.488 50.6735 28.5345C50.6217 28.5811 50.5603 28.6157 50.4936 28.6358L50.0346 28.5144L49.4087 28.3361L48.6501 28.1123C48.3789 28.0146 48.0977 27.9472 47.8117 27.9113C47.3126 27.9056 46.8173 27.9997 46.3551 28.1882C45.067 28.7213 43.8742 29.4606 42.8235 30.3769C42.7855 30.4105 42.7411 30.4361 42.693 30.4522C42.6449 30.4683 42.5941 30.4746 42.5435 30.4707C42.4929 30.4668 42.4436 30.4528 42.3986 30.4295C42.3535 30.4063 42.3136 30.3742 42.2811 30.3352Z" fill="#5D94BA"/>
<path d="M19.3242 52.3138C19.183 52.3125 19.0426 52.2921 18.9069 52.2531C17.5299 51.8738 15.436 49.4802 13.9187 47.1094C12.2572 44.511 12.7807 41.9771 13.1601 40.4977C13.398 39.5774 13.7822 38.7014 14.298 37.903L14.9353 38.3127C14.4654 39.0443 14.1146 39.8458 13.896 40.6873C13.4007 42.7405 13.6578 44.9032 14.6205 46.7832C15.8154 49.283 18.0344 51.2251 19.1231 51.521C19.2195 51.5602 19.3261 51.5668 19.4266 51.54C19.5783 51.3503 19.1611 50.1971 18.8841 49.4347C18.1255 47.3029 16.942 44.0823 18.3114 41.2715C19.0283 39.7959 20.3484 38.6162 22.226 37.7627L22.5409 38.4531C20.8263 39.2117 19.6314 40.2928 18.9942 41.6015C17.7613 44.1279 18.8235 47.0449 19.5973 49.1881C20.1511 50.7054 20.5191 51.7296 19.8476 52.181C19.6911 52.2784 19.5082 52.3247 19.3242 52.3138Z" fill="#5E6468" stroke="#5E6468" stroke-width="0.205322" stroke-miterlimit="10"/>
<path d="M13.9608 47.1733C11.737 44.2921 10.417 40.8165 10.1675 37.1855C9.78817 30.0617 13.938 23.0099 21.0239 18.7842L21.4033 19.4366C14.5753 23.5182 10.543 30.3044 10.9148 37.1476C11.0774 39.6456 11.7899 42.0768 13.0011 44.2676C12.9632 44.0248 12.9366 43.7782 12.9176 43.5317C12.7793 41.9108 13.0697 40.2821 13.7598 38.809C14.0967 38.1358 14.5187 37.5085 15.0153 36.9427C17.0372 34.5605 19.7911 31.3172 20.9101 28.4495C21.5883 26.6131 21.7956 24.636 21.5133 22.6989L22.2036 22.6154C22.5223 24.6695 22.3202 26.7708 21.6157 28.7264C20.4511 31.7118 17.6479 35.0119 15.6033 37.4207C15.1444 37.9442 14.7543 38.5242 14.4426 39.1466C13.8029 40.4947 13.5307 41.9878 13.6535 43.4748C13.744 44.6249 14.0625 45.7454 14.5905 46.7712L13.9608 47.1733Z" fill="#5E6468" stroke="#5E6468" stroke-width="0.205322" stroke-miterlimit="10"/>
<path d="M16.2364 70.4637L15.3981 70.2361C14.5788 70.0161 12.5835 69.2915 11.7603 67.338C11.4056 66.4223 11.3252 65.4232 11.5289 64.4627C11.7983 62.7064 12.5645 61.6253 13.3763 60.4797C13.7215 59.9979 14.078 59.4934 14.4156 58.9169C15.0529 57.8282 16.1264 55.6432 16.1757 53.2724C16.2061 51.7551 15.7964 49.3577 13.6115 46.691L13.9908 46.1865C16.3123 49.0315 16.9534 51.6337 16.9192 53.2914C16.8661 55.8329 15.7281 58.1468 15.0567 59.3C14.7001 59.9069 14.336 60.438 13.9832 60.9197C13.1904 62.0349 12.5038 62.9984 12.2648 64.5765C12.0855 65.3983 12.1474 66.2546 12.4431 67.0421C12.9107 68.0309 13.7364 68.8051 14.7532 69.2081C14.1046 67.649 13.9946 66.1734 14.3739 64.9406C14.8481 63.4878 15.9405 62.4598 17.7575 60.768C18.2127 60.3355 18.5845 60.0093 18.8955 59.7703C19.4105 59.4052 19.8359 58.9279 20.1397 58.3744C20.6348 57.3648 20.8497 56.2408 20.7618 55.1198C20.6928 53.1131 20.0461 51.169 18.8993 49.5208L19.5252 49.0922C20.7561 50.862 21.449 52.95 21.5205 55.1046C21.6109 56.3525 21.366 57.6019 20.8111 58.7234C20.4633 59.3645 19.9759 59.9194 19.3849 60.3469C19.0966 60.5935 18.7362 60.9007 18.2924 61.318C16.5664 62.9415 15.5233 63.924 15.1098 65.191C14.6963 66.4579 14.9429 68.0246 15.8267 69.7088L16.2364 70.4637Z" fill="#5E6468" stroke="#5E6468" stroke-width="0.205322" stroke-miterlimit="10"/>
<path d="M12.2724 68.0819C11.2609 67.7591 10.3117 67.2665 9.46539 66.6253C5.36483 63.4958 5.42932 57.8628 5.43312 57.6238C5.51278 53.5763 7.84945 49.8209 8.7257 48.4098L8.86606 48.186C9.55076 47.1692 10.0729 46.052 10.4137 44.8745C10.7877 43.5484 10.9162 42.1652 10.793 40.7929L11.5517 40.7246C11.6936 42.1872 11.565 43.6633 11.1724 45.0793C10.8134 46.3281 10.2618 47.5132 9.53747 48.5919L9.40091 48.8081C8.55121 50.1737 6.29799 53.8001 6.22212 57.6389C6.22212 57.8628 6.15764 63.1241 9.95473 66.0221C10.7321 66.6111 11.6045 67.0628 12.5342 67.3574L12.2724 68.0819Z" fill="#5E6468" stroke="#5E6468" stroke-width="0.205322" stroke-miterlimit="10"/>
<path d="M21.0004 38.8128L21.41 38.13C23.5077 34.625 24.274 31.4082 23.686 28.5746C23.4601 27.5908 23.1095 26.6399 22.6429 25.7448C21.9014 24.304 21.4028 22.7506 21.1673 21.1474C20.9359 19.558 20.549 16.9027 21.649 14.4522C23.8909 9.4602 30.7909 8.62567 31.5685 8.5498L31.6444 9.30847C30.9123 9.38054 24.4067 10.162 22.3394 14.767C21.3342 17.0127 21.6869 19.4366 21.9183 21.0411C22.139 22.5635 22.6134 24.0381 23.3219 25.4034C23.8142 26.353 24.1839 27.3612 24.4219 28.4039C25.0137 31.2338 24.3574 34.3898 22.4684 37.7962C24.255 37.4168 26.8079 36.5102 28.2569 34.2343C28.4863 33.8749 28.6794 33.4937 28.8335 33.0963L29.5391 33.377C29.3652 33.8146 29.1505 34.235 28.898 34.6325C27.0545 37.5268 23.6519 38.4069 21.7894 38.6762L21.0004 38.8128Z" fill="#5E6468" stroke="#5E6468" stroke-width="0.205322" stroke-miterlimit="10"/>
<path d="M29.4299 33.4448H29.1036L28.8874 33.4144C28.7547 33.2627 28.8874 33.0844 28.9519 32.2764C28.9746 31.4336 29.0442 30.5927 29.1605 29.7577C29.2893 27.4454 29.1979 25.1261 28.8874 22.8311C28.8305 22.4518 28.7736 22.0724 28.7129 21.6931C28.3121 19.6614 28.2175 17.5811 28.4322 15.5214C28.5632 14.1426 28.9154 12.7939 29.4754 11.5271C29.9186 10.5993 30.4921 9.73963 31.1786 8.97417C32.52 7.48915 34.3801 6.5754 36.3754 6.42128C38.8183 6.24299 40.8743 7.0358 41.7467 8.48863C43.1844 10.8936 41.1436 14.6072 40.5366 15.0093C37.961 16.7087 37.3882 17.1298 34.5622 20.3199C33.5048 21.4412 32.5772 22.678 31.7969 24.007C30.8164 25.7896 30.1734 27.7379 29.9002 29.7539C29.8433 30.8464 29.7523 31.7264 29.6916 32.3182C29.6916 32.4092 29.6916 32.4889 29.6916 32.5647C29.7115 32.9462 29.6048 33.3236 29.3881 33.6382L29.4299 33.4448ZM37.0582 7.14959C36.8534 7.14959 36.6447 7.14959 36.4285 7.17235C34.6298 7.30908 32.9525 8.1321 31.7438 9.4711C31.1047 10.1816 30.5708 10.98 30.1582 11.8419C29.6357 13.0324 29.3078 14.299 29.1871 15.5935C28.9807 17.5862 29.0728 19.5986 29.4602 21.5641C29.5209 21.9435 29.5816 22.3228 29.6385 22.7211C29.8035 23.92 29.9073 25.1266 29.9495 26.3361C30.2586 25.402 30.6549 24.499 31.1331 23.6391C31.9396 22.2622 32.8991 20.9808 33.9932 19.8192C36.8837 16.5418 37.4717 16.1094 40.1194 14.3645C40.4115 14.1141 42.3119 10.9012 41.0943 8.86796C40.4456 7.78308 38.9283 7.14959 37.0582 7.14959Z" fill="#5E6468" stroke="#5E6468" stroke-width="0.205322" stroke-miterlimit="10"/>
<path d="M19.1691 60.5144L18.8125 59.8467C21.1261 58.6574 22.9764 56.7296 24.07 54.3692L24.0928 54.3199C25.1473 51.9681 25.4128 49.73 24.8818 47.6627C24.6682 46.9027 24.389 46.1628 24.0473 45.4512C23.4783 44.169 22.8903 42.8452 23.0117 41.0016C23.1027 39.6209 24.529 37.178 26.4636 36.2676L26.6646 36.9162C24.8894 37.7546 23.8348 40.0533 23.7666 41.0547C23.6565 42.7086 24.1838 43.8921 24.7414 45.1439C25.1016 45.8942 25.3948 46.6749 25.6177 47.4768C26.1905 49.711 25.9098 52.1198 24.787 54.631L24.7642 54.6803C23.6022 57.1947 21.6327 59.2483 19.1691 60.5144Z" fill="#5E6468" stroke="#5E6468" stroke-width="0.205322" stroke-miterlimit="10"/>
<path d="M34.4628 51.9572C32.9113 51.8359 29.5315 51.2289 26.8762 48.9226C25.3408 47.5788 24.1604 45.8773 23.4395 43.9685L24.1488 43.6992C24.8244 45.4912 25.932 47.0886 27.3731 48.3498C29.2775 49.9787 31.6495 50.9615 34.1479 51.1569L34.4628 51.9572Z" fill="#5E6468" stroke="#5E6468" stroke-width="0.205322" stroke-miterlimit="10"/>
<path d="M38.3245 67.0423L38.059 66.2002C37.6271 64.8239 36.9667 63.53 36.1054 62.3728C35.6962 61.7598 35.2034 61.207 34.6412 60.7303C33.9392 60.2215 33.1314 59.8778 32.278 59.7251L32.1718 59.7023C29.9935 59.1743 28.0291 57.9922 26.5425 56.3149C25.8407 55.4538 24.7293 53.5002 25.139 50.0977L25.8976 50.1887C25.5183 53.3144 26.5122 55.0669 27.1343 55.8369C28.5121 57.3852 30.3309 58.4747 32.3463 58.9588L32.4487 58.9816C33.4071 59.1598 34.314 59.5485 35.104 60.1196C35.7231 60.6425 36.2681 61.2474 36.7237 61.9176C37.4552 62.8957 38.0499 63.969 38.4914 65.1078C39.4772 62.9065 39.6806 60.4343 39.068 58.1015C37.8807 53.7165 34.1746 51.7477 33.4425 51.395L33.7687 50.7122C34.8688 51.2394 38.5559 53.3182 39.8001 57.9194C40.5307 60.7315 40.1603 63.7165 38.7645 66.2647L38.3245 67.0423Z" fill="#5E6468" stroke="#5E6468" stroke-width="0.205322" stroke-miterlimit="10"/>
<path d="M28.4135 71.7204C28.4135 69.7592 27.8938 68.2533 26.8962 67.2405C26.7794 67.1175 26.6525 67.0046 26.5168 66.9029C26.4258 66.8346 26.3158 66.7549 26.1679 66.6335C25.4092 66.0114 21.5818 62.7075 22.0938 58.7321C22.1772 58.0836 22.3628 57.4524 22.6439 56.862L23.5087 56.7861C23.2038 57.4376 22.9808 58.1244 22.8449 58.8307C22.3783 62.4799 26.2058 65.689 26.6382 66.038C26.7786 66.1518 26.881 66.2277 26.9682 66.2922C27.1412 66.4149 27.3024 66.5533 27.45 66.7056C28.588 67.8626 29.1797 69.5468 29.1873 71.7128L28.4135 71.7204Z" fill="#5E6468" stroke="#5E6468" stroke-width="0.205322" stroke-miterlimit="10"/>
<path d="M18.3681 71.6509L18.1709 70.915C19.8992 70.4544 21.4199 69.4206 22.4839 67.9828C23.2915 66.8681 23.7889 65.5591 23.9253 64.1895L24.684 64.2653C24.515 65.9988 23.8168 67.6384 22.6843 68.9616C21.5517 70.2848 20.0396 71.2277 18.353 71.6623L18.3681 71.6509Z" fill="#5E6468" stroke="#5E6468" stroke-width="0.205322" stroke-miterlimit="10"/>
<path d="M32.0658 72.2839L31.5879 71.6808C33.117 70.4864 34.2823 68.8888 34.9525 67.0679C35.6227 65.247 35.7712 63.2751 35.3812 61.3744L36.1399 61.2227C36.5588 63.26 36.4012 65.3737 35.6849 67.3264C34.9685 69.2791 33.7218 70.9933 32.0848 72.2763L32.0658 72.2839Z" fill="#5E6468" stroke="#5E6468" stroke-width="0.205322" stroke-miterlimit="10"/>
<path d="M56.9307 49.2749L56.4717 48.778C58.3684 46.7258 61.441 42.6138 60.6444 38.1264C59.6467 32.3833 52.6784 28.0741 52.3977 27.8844C51.9956 27.6379 51.5898 27.4141 51.1991 27.1979C49.7235 26.3747 48.3275 25.6009 47.0909 23.8256C46.1704 22.3779 45.3735 20.8552 44.7087 19.2736C44.557 18.9247 44.428 18.6022 44.3066 18.3026C43.7718 16.9825 43.4455 16.1859 42.5996 15.6473C41.9182 15.2256 41.1238 15.0231 40.3236 15.0669L40.3047 14.3082C41.2587 14.2577 42.205 14.5042 43.0131 15.0138C44.0601 15.7004 44.4584 16.679 45.0084 18.0484C45.1298 18.3443 45.2587 18.6629 45.3877 19.0081C46.0344 20.5461 46.8071 22.028 47.6978 23.4387C48.8358 25.0698 50.1559 25.8019 51.5518 26.5796C51.9501 26.7996 52.3636 27.031 52.7771 27.2813C53.0843 27.471 60.3219 31.9547 61.3765 38.0353C62.2413 42.8073 58.9222 47.1203 56.9307 49.2749Z" fill="#5E6468" stroke="#5E6468" stroke-width="0.205322" stroke-miterlimit="10"/>
<path d="M55.9602 68.5795C55.9384 68.6254 55.9076 68.6664 55.8696 68.7002C55.8316 68.7339 55.7873 68.7597 55.7392 68.7759C55.6911 68.7922 55.6402 68.7987 55.5895 68.7949C55.5389 68.7911 55.4895 68.7772 55.4443 68.754C54.257 68.1407 53.2156 67.2791 52.3907 66.2277C49.595 62.6241 50.422 57.8369 50.8203 55.5382C51.1314 54.0832 51.533 52.6491 52.0227 51.2441C52.7814 48.7861 53.377 47.3333 53.8435 46.1687C54.2585 45.2105 54.5934 44.2196 54.845 43.2061C55.4019 40.5986 55.3252 37.8954 54.6212 35.3237C54.5967 35.2276 54.6108 35.1258 54.6604 35.0401C54.71 34.9543 54.7913 34.8913 54.8867 34.8647C54.9355 34.851 54.9866 34.8472 55.0369 34.8536C55.0872 34.86 55.1357 34.8764 55.1796 34.9019C55.2234 34.9273 55.2617 34.9613 55.2922 35.0019C55.3227 35.0424 55.3447 35.0886 55.3571 35.1378C56.0909 37.8264 56.169 40.6518 55.5847 43.3768C55.3253 44.4292 54.9789 45.4582 54.5491 46.4532C54.0863 47.5912 53.5135 49.0402 52.7473 51.4717C52.2676 52.8445 51.8736 54.2456 51.5676 55.6671C51.1882 57.8597 50.3992 62.423 52.99 65.7649C53.7477 66.7269 54.7021 67.5158 55.7895 68.0788C55.8775 68.1236 55.9447 68.201 55.9765 68.2945C56.0084 68.388 56.0026 68.4903 55.9602 68.5795Z" fill="#5E6468" stroke="#5E6468" stroke-width="0.205322" stroke-miterlimit="10"/>
<path d="M55.8842 29.7462L55.1255 29.6893C55.4176 25.786 54.6931 22.8614 52.9747 20.9647C52.1284 20.1195 51.1893 19.3725 50.1753 18.7381C48.5005 17.6883 46.9864 16.4017 45.6802 14.9182L43.9505 12.8281L41.5 9.86933L42.0842 9.38379L44.5346 12.3464L46.2606 14.4289C47.525 15.8578 48.9877 17.0981 50.6039 18.1122C51.6672 18.7765 52.65 19.5619 53.5324 20.4526C55.4025 22.501 56.1915 25.6267 55.8842 29.7462Z" fill="#5E6468" stroke="#5E6468" stroke-width="0.205322" stroke-miterlimit="10"/>
<path d="M57.887 32.5425C57.8188 31.7459 56.1535 13.0601 45.1871 9.35787C43.9024 8.93212 42.5574 8.71692 41.2041 8.7206V7.96194C42.6388 7.95913 44.0646 8.18842 45.426 8.64094C56.8591 12.4987 58.5698 31.6663 58.6381 32.4781L57.887 32.5425Z" fill="#5E6468" stroke="#5E6468" stroke-width="0.205322" stroke-miterlimit="10"/>
<path d="M51.3849 56.7364L50.668 56.486C51.2897 54.7151 52.2123 53.0649 53.3954 51.6078C54.447 50.3075 55.6888 49.1732 57.0787 48.2432L57.5035 48.8728C56.1769 49.7613 54.9904 50.843 53.9833 52.082C52.8558 53.4723 51.9767 55.0469 51.3849 56.7364Z" fill="#5E6468" stroke="#5E6468" stroke-width="0.205322" stroke-miterlimit="10"/>
<path d="M63.092 69.2315L62.504 68.7536C63.0179 68.1474 63.354 67.4109 63.4751 66.6255C63.7141 64.8085 62.4281 63.3709 60.9374 61.6942C59.7994 60.4045 58.4793 58.9479 57.6562 57.055C56.5182 54.3997 56.4727 51.183 57.5651 47.5225L58.3238 47.6173C57.2806 51.1033 57.2768 54.2556 58.3579 56.7516C59.1166 58.5306 60.3911 59.9417 61.5064 61.1859C63.054 62.9119 64.5144 64.543 64.2299 66.7052C64.0956 67.6375 63.7012 68.5131 63.092 69.2315Z" fill="#5E6468" stroke="#5E6468" stroke-width="0.205322" stroke-miterlimit="10"/>
<path d="M67.4456 69.6064L66.8349 69.155C67.4805 68.2801 68.0515 67.3525 68.5419 66.3821C69.6495 64.1858 71.3262 60.8704 70.541 57.1492C70.1616 55.3398 69.0009 52.6314 65.6704 50.0254C65.0727 49.5636 64.4384 49.1513 63.7737 48.7926C62.9001 48.3827 62.1503 47.7494 61.6001 46.9566C59.5783 43.8992 60.9894 40.599 60.7884 39.9238L61.5053 40.1704C61.3081 40.7508 60.4091 43.774 62.2336 46.5393C62.7723 47.3549 63.3489 47.6773 64.1303 48.1325C64.8294 48.5068 65.4956 48.9395 66.1218 49.4261C69.6344 52.1762 70.8596 55.0591 71.2693 56.9937C72.1076 60.9729 70.2906 64.5803 69.2057 66.7235C68.7002 67.7317 68.1114 68.696 67.4456 69.6064Z" fill="#5E6468" stroke="#5E6468" stroke-width="0.205322" stroke-miterlimit="10"/>
<path d="M58.4747 72.7625C56.7146 71.9507 55.6828 70.9265 55.4097 69.7279C55.1062 68.3774 55.8573 67.2774 56.6501 66.1128C57.3156 65.2206 57.8461 64.2351 58.2243 63.1882C58.9299 60.9957 58.5543 58.3859 57.0863 55.4271L57.5946 55.1768C59.1347 58.3176 59.6961 61.0374 58.9261 63.4234C58.5276 64.5398 57.9651 65.5907 57.257 66.5415C56.4984 67.6529 55.899 68.533 56.1191 69.5761C56.3391 70.5434 57.2267 71.3931 58.7744 72.0987L58.4747 72.7625Z" fill="#5E6468" stroke="#5E6468" stroke-width="0.205322" stroke-miterlimit="10"/>
<path d="M55.6635 36.9875L54.9883 36.6386L55.9063 34.8557L56.3501 33.9984C56.4221 33.8581 56.4411 33.8277 56.4487 33.8087C56.8584 32.8035 56.1946 31.1117 55.3107 30.0534C54.7872 29.4275 54.3282 29.1847 54.1272 29.2302C54.0589 29.2758 54.0286 29.5603 54.0172 29.6551C53.9944 29.8637 53.9717 30.0761 53.7668 30.1899C53.7118 30.2115 53.6546 30.2267 53.5961 30.2355C53.5244 30.2307 53.4533 30.2192 53.3837 30.2013C53.2434 30.133 53.0309 30.0268 52.6933 28.5626C52.6265 28.3436 52.5165 28.1402 52.37 27.9644C52.2234 27.7885 52.0432 27.6437 51.8398 27.5384L52.2457 26.8936C52.5339 27.051 52.7876 27.2648 52.9915 27.5222C53.1955 27.7796 53.3456 28.0753 53.433 28.3919C53.4672 28.5247 53.5127 28.464 53.5392 28.5778C53.6417 28.4488 53.7668 28.5285 53.9679 28.4867C54.7265 28.3274 55.4852 29.0975 55.8949 29.5678C56.9304 30.812 57.6967 32.7618 57.1543 34.0895C57.1543 34.1198 57.1543 34.1312 57.0253 34.3474L56.5815 35.2047C56.1908 35.9595 55.8645 36.5779 55.6635 36.9875Z" fill="#5E6468" stroke="#5E6468" stroke-width="0.205322" stroke-miterlimit="10"/>
<path d="M43.8635 56.0082C43.1684 56.0052 42.475 55.9379 41.7923 55.8072C40.2397 55.5084 38.7605 54.9092 37.4376 54.0433C36.2962 53.3316 35.253 52.4733 34.3347 51.4904L34.293 50.8114C35.4142 51.7511 36.5965 52.6153 37.8321 53.3984C39.0776 54.2117 40.4688 54.7759 41.9289 55.0599C43.1809 55.3105 44.4702 55.3105 45.7222 55.0599C46.4088 54.9195 49.9138 54.0623 51.7915 50.8873C52.2036 50.283 52.5351 49.6275 52.7777 48.9375L53.3733 49.1044C53.1605 49.8655 52.848 50.5951 52.4439 51.2742C50.4449 54.6388 46.9019 55.591 45.8663 55.8034C45.2072 55.9379 44.5362 56.0065 43.8635 56.0082Z" fill="#5E6468" stroke="#5E6468" stroke-width="0.205322" stroke-miterlimit="10"/>
<path d="M34.7484 52.1761C33.068 50.8295 31.82 49.3312 31.1713 47.7797C29.874 44.673 31.1296 42.2263 32.4572 39.6355C33.4852 37.625 34.5511 35.5501 34.6725 32.891C34.8091 29.9246 33.6825 26.742 31.323 23.4381L31.9413 22.998C34.3994 26.4462 35.5753 29.7843 35.4312 32.9251C35.3022 35.7473 34.1491 37.9968 33.1325 39.9807C31.8313 42.5146 30.7085 44.7071 31.8731 47.4876C32.609 49.1039 33.7384 50.5098 35.1581 51.5768L34.7484 52.1761Z" fill="#5E6468" stroke="#5E6468" stroke-width="0.205322" stroke-miterlimit="10"/>
<path d="M42.7326 43.5242C42.5013 43.5124 42.2734 43.4637 42.0574 43.38C41.9474 43.3421 41.8185 43.3004 41.6781 43.2587C41.2122 43.1267 40.7279 43.0716 40.2442 43.0955C39.8962 43.1484 39.5413 43.0641 39.2542 42.8604C38.6624 42.3748 38.8293 41.5517 39.019 40.5844C39.0949 40.205 39.1783 39.7954 39.2276 39.3629C39.5425 36.5521 38.3741 33.4985 36.4471 32.1063C36.013 31.7542 35.5045 31.5052 34.9602 31.378C34.8791 31.3589 34.8065 31.3136 34.7538 31.2492C34.701 31.1848 34.6709 31.1047 34.6681 31.0215C34.6667 30.9638 34.6784 30.9065 34.7025 30.8541C34.7265 30.8016 34.7622 30.7553 34.8068 30.7188C34.8515 30.6822 34.9038 30.6563 34.96 30.643C35.0161 30.6297 35.0746 30.6294 35.1309 30.6421C35.7679 30.8057 36.367 31.0917 36.8948 31.4842C39.0266 33.0281 40.3087 36.3738 39.9825 39.4502C39.9294 39.9168 39.8421 40.353 39.7663 40.7399C39.6221 41.453 39.497 42.0713 39.7359 42.2572C39.8194 42.3255 39.9066 42.3293 40.2253 42.3217C40.7832 42.2955 41.3417 42.3595 41.8792 42.5114C42.0423 42.5569 42.1826 42.6024 42.304 42.6441L42.6151 42.7352C42.6854 42.7495 42.7585 42.7436 42.8256 42.7181C42.8928 42.6926 42.9513 42.6485 42.9944 42.591L43.2751 42.2117L43.6544 41.6882C43.8123 41.4574 43.9833 41.2357 44.1665 41.0244C44.3521 40.8199 44.5551 40.6321 44.7734 40.463C44.8149 40.4316 44.8624 40.4091 44.9129 40.3969C44.9634 40.3846 45.0159 40.3829 45.0672 40.3918C45.1184 40.4007 45.1672 40.42 45.2107 40.4486C45.2541 40.4771 45.2912 40.5143 45.3197 40.5578C45.3679 40.6362 45.3861 40.7294 45.3707 40.8201C45.3554 40.9108 45.3076 40.9929 45.2362 41.051C45.051 41.194 44.8784 41.3526 44.7203 41.5251C44.5556 41.7169 44.4023 41.9183 44.2613 42.1283L43.882 42.6479C43.442 43.2549 43.3509 43.3838 43.0816 43.4635C42.9688 43.5004 42.8513 43.5209 42.7326 43.5242Z" fill="#5E6468"/>
<path d="M52.3299 30.2666L50.9529 29.5079L50.3005 29.2158C49.9178 30.081 49.2477 30.7873 48.4038 31.2149C46.4237 32.1936 44.1364 30.938 44.1136 30.9266L43.9732 31.1656L43.7381 31.5677C43.6572 31.6903 43.5825 31.8169 43.5143 31.947C43.3777 32.2391 43.2222 32.5046 43.097 32.7664C43.0467 32.8735 43.041 32.9962 43.0812 33.1076C43.1214 33.2189 43.2042 33.3097 43.3113 33.36C43.4185 33.4103 43.5412 33.416 43.6525 33.3758C43.7639 33.3356 43.8547 33.2528 43.905 33.1457C43.9695 32.9902 44.1288 32.645 44.2843 32.3149L44.474 31.9129C44.6105 31.9622 44.7623 32.0153 44.9292 32.0646C44.9064 32.2201 44.8799 32.4022 44.8571 32.5843C44.8343 32.7663 44.766 33.1798 44.7319 33.4112C44.7427 33.4963 44.7801 33.5758 44.8388 33.6383C44.8975 33.7008 44.9746 33.7431 45.0588 33.7591C45.1431 33.7751 45.2303 33.764 45.3078 33.7274C45.3854 33.6908 45.4494 33.6306 45.4906 33.5554C45.5209 33.3885 45.5702 33.0357 45.6195 32.6867C45.6423 32.535 45.6613 32.3832 45.6802 32.2467C45.8699 32.2821 46.0671 32.3086 46.272 32.3263L46.4617 33.6274C46.5005 33.7022 46.5617 33.763 46.6366 33.8015C46.7116 33.8399 46.7967 33.8541 46.8801 33.842C46.9635 33.8299 47.041 33.7921 47.102 33.734C47.1629 33.6758 47.2043 33.6001 47.2203 33.5174L47.0458 32.3339C47.2688 32.324 47.4907 32.2974 47.7097 32.2543L48.1611 33.6426C48.2103 33.7106 48.2798 33.7612 48.3596 33.7873C48.4393 33.8134 48.5253 33.8137 48.6052 33.788C48.6852 33.7624 48.7549 33.7121 48.8046 33.6444C48.8543 33.5768 48.8813 33.4951 48.8818 33.4112L48.4342 32.0304C48.5451 31.9918 48.654 31.9475 48.7604 31.8977C48.8476 31.8522 48.9197 31.8066 48.9994 31.7611L49.758 32.9636C49.7907 33.0062 49.8315 33.0419 49.8781 33.0686C49.9247 33.0953 49.9761 33.1125 50.0294 33.1192C50.0827 33.1259 50.1367 33.122 50.1885 33.1077C50.2402 33.0933 50.2886 33.0688 50.3308 33.0357C50.3947 32.9773 50.4367 32.8988 50.4498 32.8132C50.4629 32.7276 50.4464 32.6402 50.4029 32.5653L49.6442 31.3363C49.7467 31.2528 49.8415 31.1656 49.9325 31.0783C50.0463 31.1959 50.2132 31.3552 50.3915 31.5259C50.5698 31.6966 50.8353 31.9508 50.9112 32.038C50.9468 32.079 50.9908 32.1119 51.0402 32.1344C51.0896 32.157 51.1433 32.1686 51.1976 32.1686C51.2519 32.1686 51.3056 32.157 51.355 32.1344C51.4044 32.1119 51.4484 32.079 51.484 32.038C51.5469 31.9683 51.5817 31.8778 51.5817 31.7839C51.5817 31.69 51.5469 31.5994 51.484 31.5297C51.3854 31.4197 51.1578 31.1997 50.9188 30.9683C50.7329 30.7938 50.5395 30.589 50.437 30.498C50.5167 30.3917 50.5926 30.2893 50.657 30.1869L51.9392 30.9456C51.984 30.9747 52.0342 30.9947 52.0867 31.0045C52.1393 31.0143 52.1933 31.0136 52.2456 31.0025C52.2979 30.9914 52.3475 30.9701 52.3916 30.9398C52.4357 30.9096 52.4734 30.8709 52.5025 30.8261C52.5316 30.7812 52.5517 30.7311 52.5614 30.6785C52.5712 30.626 52.5705 30.572 52.5594 30.5197C52.5483 30.4674 52.527 30.4178 52.4968 30.3737C52.4665 30.3296 52.4278 30.2919 52.383 30.2628L52.3299 30.2666Z" fill="#5E6468"/>
<path d="M34.8158 36.0938L34.1709 36.4958L34.7778 37.4707C34.8462 37.5187 34.9276 37.5445 35.0111 37.5445C35.0946 37.5445 35.1761 37.5187 35.2444 37.4707C35.3112 37.4258 35.3636 37.3625 35.3952 37.2884C35.4269 37.2144 35.4364 37.1328 35.4227 37.0535L34.8158 36.0938Z" fill="#5E6468"/>
<path d="M37.3125 34.6672L36.0341 34.0299L35.34 33.7227C35.2919 33.8394 35.2539 33.9599 35.2262 34.083C35.1677 34.3485 35.0104 34.5818 34.7861 34.7355L35.0858 35.0693L34.8392 35.4714C34.9379 35.5814 35.1655 35.8014 35.4044 36.029C35.6434 36.2566 35.8483 36.4538 35.9241 36.5449C36.0028 36.6154 36.1058 36.6524 36.2113 36.6482C36.3169 36.6439 36.4166 36.5987 36.4893 36.5221C36.5442 36.4545 36.5741 36.3702 36.5741 36.2831C36.5741 36.1961 36.5442 36.1117 36.4893 36.0442C36.3907 35.9304 36.1631 35.7141 35.9203 35.4828L35.5107 35.0807C35.6195 34.9672 35.7127 34.8396 35.7876 34.7013L36.9256 35.3234C37.0141 35.3737 37.119 35.3868 37.2171 35.3598C37.3153 35.3327 37.3987 35.2678 37.449 35.1793C37.4993 35.0908 37.5124 34.9859 37.4854 34.8877C37.4583 34.7895 37.3934 34.7061 37.3049 34.6558L37.3125 34.6672Z" fill="#5E6468"/>
<path d="M42.2811 29.8649C42.2479 29.8272 42.2225 29.7833 42.2065 29.7357C42.1904 29.6881 42.1839 29.6378 42.1875 29.5877C42.191 29.5376 42.2044 29.4886 42.227 29.4438C42.2496 29.3989 42.2809 29.359 42.319 29.3263C43.4351 28.3518 44.7038 27.5675 46.0744 27.0048C46.6414 26.7708 47.2519 26.6608 47.8648 26.6823C48.2034 26.7241 48.5365 26.8017 48.8587 26.9137L49.6173 27.1375C50.0725 27.2665 50.4443 27.3651 50.6833 27.4258C50.7439 27.4852 50.7865 27.5605 50.806 27.6431C50.8255 27.7258 50.8211 27.8122 50.7933 27.8924C50.7669 27.957 50.7262 28.0147 50.6743 28.0614C50.6224 28.108 50.5606 28.1423 50.4936 28.1617L50.0346 28.0403L49.4087 27.8658L48.6501 27.642C48.3789 27.5435 48.0978 27.4748 47.8117 27.4372C47.3122 27.4309 46.8166 27.5264 46.3551 27.7179C45.0662 28.2496 43.8732 28.989 42.8235 29.9066C42.7855 29.9402 42.7411 29.9658 42.693 29.9819C42.6449 29.998 42.5941 30.0043 42.5435 30.0004C42.4929 29.9965 42.4436 29.9825 42.3986 29.9592C42.3535 29.936 42.3136 29.9039 42.2811 29.8649Z" fill="#5E6468"/>
<path d="M39.0762 48.2693C39.0929 48.3006 39.1133 48.3299 39.1369 48.3565V48.3755L39.2089 48.4362C40.8295 49.2904 42.7081 49.5173 44.4854 49.0734L44.6068 49.0431L44.7472 49.0127C46.5186 48.6097 48.0811 47.5721 49.1398 46.0957C49.1581 46.063 49.1734 46.0287 49.1853 45.9933C49.1841 45.9845 49.1841 45.9755 49.1853 45.9667C49.1892 45.9327 49.1892 45.8983 49.1853 45.8643C49.1909 45.8291 49.1909 45.7933 49.1853 45.7581C49.1858 45.7492 49.1858 45.7404 49.1853 45.7315V45.6936L49.155 45.6443C49.133 45.6148 49.1089 45.5869 49.0829 45.5608L49.007 45.5153H48.9843C48.9517 45.5012 48.9172 45.4922 48.8819 45.4888H48.7529C47.9183 45.6138 47.0677 45.5804 46.2455 45.3901C45.4814 45.0945 44.6508 45.0145 43.8443 45.1587H43.7647H43.6926L43.6167 45.1853C42.8313 45.4208 42.1246 45.8653 41.5722 46.4712C40.9295 47.0117 40.189 47.4237 39.391 47.6851H39.372C39.3411 47.6964 39.3118 47.7117 39.2848 47.7306H39.262C39.2319 47.7519 39.2051 47.7774 39.1824 47.8065C39.1637 47.8329 39.1472 47.8608 39.1331 47.8899V47.9165C39.1202 47.9508 39.1113 47.9864 39.1065 48.0227C39.1047 48.0505 39.1047 48.0784 39.1065 48.1061C39.1043 48.1149 39.1043 48.124 39.1065 48.1327C39.1044 48.1414 39.1044 48.1505 39.1065 48.1592C39.112 48.1909 39.1223 48.2216 39.1369 48.2503L39.0762 48.2693ZM42.1108 47.0668C42.5673 46.552 43.1585 46.175 43.8178 45.9781H43.8633H43.9088C44.5858 45.8547 45.2839 45.9243 45.9231 46.1791C46.0811 46.2281 46.242 46.2674 46.4048 46.2967C44.8945 46.7535 43.3546 47.1059 41.796 47.3513C41.9174 47.2489 42.0236 47.1578 42.1222 47.0668H42.1108ZM44.6561 47.6471C45.4451 47.4613 46.2645 47.2337 47.0725 46.9682C46.316 47.5432 45.4477 47.9541 44.5234 48.1744L44.3868 48.2048L44.2654 48.2351C43.2993 48.4654 42.2945 48.4809 41.3218 48.2806C42.2436 48.163 43.4119 47.9468 44.6675 47.6471H44.6561Z" fill="#5E6468"/>
<path d="M65.6515 28.597C65.3184 27.6194 64.6542 26.7889 63.7738 26.249C63.7636 26.2429 63.7551 26.2344 63.7492 26.224C63.7433 26.2137 63.7402 26.2021 63.7402 26.1902C63.7402 26.1783 63.7433 26.1666 63.7492 26.1563C63.7551 26.146 63.7636 26.1374 63.7738 26.1314C64.6528 25.5898 65.3164 24.7599 65.6515 23.7833C65.655 23.7694 65.663 23.7569 65.6743 23.7481C65.6857 23.7392 65.6997 23.7344 65.7141 23.7344C65.7285 23.7344 65.7425 23.7392 65.7538 23.7481C65.7651 23.7569 65.7732 23.7694 65.7767 23.7833C66.1092 24.7613 66.7735 25.592 67.6543 26.1314C67.6646 26.1374 67.673 26.146 67.6789 26.1563C67.6848 26.1666 67.6879 26.1783 67.6879 26.1902C67.6879 26.2021 67.6848 26.2137 67.6789 26.224C67.673 26.2344 67.6646 26.2429 67.6543 26.249C66.772 26.7867 66.1072 27.618 65.7767 28.597C65.7714 28.6092 65.7626 28.6196 65.7515 28.6269C65.7404 28.6342 65.7274 28.638 65.7141 28.638C65.7008 28.638 65.6878 28.6342 65.6767 28.6269C65.6656 28.6196 65.6568 28.6092 65.6515 28.597Z" fill="#5D94BA"/>
<path d="M59.4945 20.0546C59.2851 19.4424 58.8694 18.9221 58.3185 18.5828C58.3122 18.5791 58.307 18.5739 58.3034 18.5676C58.2998 18.5612 58.2979 18.5541 58.2979 18.5468C58.2979 18.5395 58.2998 18.5323 58.3034 18.526C58.307 18.5197 58.3122 18.5144 58.3185 18.5107C58.8703 18.1707 59.2862 17.6489 59.4945 17.0351C59.4971 17.0267 59.5024 17.0192 59.5096 17.014C59.5167 17.0087 59.5254 17.0059 59.5343 17.0059C59.5432 17.0059 59.5518 17.0087 59.559 17.014C59.5662 17.0192 59.5715 17.0267 59.5741 17.0351C59.7837 17.6493 60.2009 18.1712 60.7538 18.5107C60.7601 18.5144 60.7654 18.5197 60.769 18.526C60.7726 18.5323 60.7745 18.5395 60.7745 18.5468C60.7745 18.5541 60.7726 18.5612 60.769 18.5676C60.7654 18.5739 60.7601 18.5791 60.7538 18.5828C60.202 18.9219 59.785 19.4422 59.5741 20.0546C59.5715 20.0631 59.5662 20.0705 59.559 20.0758C59.5518 20.0811 59.5432 20.0839 59.5343 20.0839C59.5254 20.0839 59.5167 20.0811 59.5096 20.0758C59.5024 20.0705 59.4971 20.0631 59.4945 20.0546Z" fill="#5D94BA"/>
<path d="M11.2466 23.0206C11.0461 22.4285 10.6431 21.9261 10.1086 21.6019C10.1023 21.5983 10.0971 21.593 10.0934 21.5867C10.0898 21.5804 10.0879 21.5732 10.0879 21.5659C10.0879 21.5586 10.0898 21.5515 10.0934 21.5451C10.0971 21.5388 10.1023 21.5335 10.1086 21.5299C10.6412 21.2035 11.0435 20.7019 11.2466 20.1112C11.2466 20.1011 11.2506 20.0915 11.2577 20.0844C11.2648 20.0772 11.2744 20.0732 11.2845 20.0732C11.2946 20.0732 11.3042 20.0772 11.3113 20.0844C11.3184 20.0915 11.3224 20.1011 11.3224 20.1112C11.5255 20.7019 11.9279 21.2035 12.4604 21.5299C12.4667 21.5335 12.4719 21.5388 12.4756 21.5451C12.4792 21.5515 12.4811 21.5586 12.4811 21.5659C12.4811 21.5732 12.4792 21.5804 12.4756 21.5867C12.4719 21.593 12.4667 21.5983 12.4604 21.6019C11.9259 21.9261 11.5229 22.4285 11.3224 23.0206C11.3191 23.0279 11.3138 23.0341 11.307 23.0384C11.3003 23.0427 11.2925 23.045 11.2845 23.045C11.2765 23.045 11.2687 23.0427 11.262 23.0384C11.2552 23.0341 11.2499 23.0279 11.2466 23.0206Z" fill="#5D94BA"/>
<path d="M6.0269 37.163C5.74906 36.3509 5.19628 35.6612 4.46406 35.2133C4.45539 35.2083 4.44819 35.2011 4.44319 35.1925C4.43818 35.1838 4.43555 35.174 4.43555 35.164C4.43555 35.154 4.43818 35.1442 4.44319 35.1355C4.44819 35.1268 4.45539 35.1197 4.46406 35.1147C5.19654 34.6653 5.74926 33.9744 6.0269 33.1611C6.02998 33.1499 6.03666 33.14 6.04591 33.1329C6.05516 33.1259 6.06648 33.1221 6.07811 33.1221C6.08974 33.1221 6.10105 33.1259 6.1103 33.1329C6.11956 33.14 6.12624 33.1499 6.12932 33.1611C6.40582 33.975 6.95881 34.6663 7.69216 35.1147C7.70082 35.1197 7.70802 35.1268 7.71303 35.1355C7.71803 35.1442 7.72067 35.154 7.72067 35.164C7.72067 35.174 7.71803 35.1838 7.71303 35.1925C7.70802 35.2011 7.70082 35.2083 7.69216 35.2133C6.95886 35.66 6.40573 36.3501 6.12932 37.163C6.12624 37.1743 6.11956 37.1842 6.1103 37.1912C6.10105 37.1983 6.08974 37.2021 6.07811 37.2021C6.06648 37.2021 6.05516 37.1983 6.04591 37.1912C6.03666 37.1842 6.02998 37.1743 6.0269 37.163Z" fill="#5D94BA"/>
<path d="M8.00786 43.0843C7.87306 42.6914 7.60454 42.3585 7.2492 42.1435C7.24527 42.1412 7.24202 42.1378 7.23977 42.1338C7.23751 42.1298 7.23633 42.1253 7.23633 42.1208C7.23633 42.1162 7.23751 42.1117 7.23977 42.1077C7.24202 42.1037 7.24527 42.1004 7.2492 42.098C7.60454 41.883 7.87306 41.5501 8.00786 41.1573C8.01049 41.1525 8.01433 41.1486 8.019 41.1458C8.02367 41.1431 8.029 41.1416 8.03442 41.1416C8.03984 41.1416 8.04516 41.1431 8.04983 41.1458C8.0545 41.1486 8.05834 41.1525 8.06097 41.1573C8.19576 41.5501 8.46429 41.883 8.81963 42.098C8.82356 42.1004 8.82681 42.1037 8.82906 42.1077C8.83132 42.1117 8.83251 42.1162 8.83251 42.1208C8.83251 42.1253 8.83132 42.1298 8.82906 42.1338C8.82681 42.1378 8.82356 42.1412 8.81963 42.1435C8.46429 42.3585 8.19576 42.6914 8.06097 43.0843C8.05834 43.089 8.0545 43.093 8.04983 43.0957C8.04516 43.0985 8.03984 43.0999 8.03442 43.0999C8.029 43.0999 8.02367 43.0985 8.019 43.0957C8.01433 43.093 8.01049 43.089 8.00786 43.0843Z" fill="#5D94BA"/>
</svg>
