<svg width="91" height="90" viewBox="0 0 91 90" fill="none" xmlns="http://www.w3.org/2000/svg">
<rect x="2.49262" y="1.6059" width="86.7882" height="86.7882" rx="14.4531" stroke="white" stroke-width="3.2118"/>
<path opacity="0.15" d="M27.4613 39.5701C27.726 36.7901 30.0609 34.667 32.8535 34.667H60.1458C62.9384 34.667 65.2733 36.7901 65.5381 39.5701L67.6015 61.2368C67.9044 64.4168 65.4037 67.167 62.2093 67.167H30.79C27.5956 67.167 25.0949 64.4168 25.3978 61.2368L27.4613 39.5701Z" fill="white"/>
<path d="M25.3984 61.2364L24.1852 61.1209L25.3984 61.2364ZM67.6022 61.2364L68.8154 61.1209L67.6022 61.2364ZM65.5387 39.5698L64.3254 39.6853L65.5387 39.5698ZM27.4619 39.5698L28.6752 39.6853L27.4619 39.5698ZM34.4482 34.6667C34.4482 35.3398 34.9939 35.8854 35.667 35.8854C36.3401 35.8854 36.8857 35.3398 36.8857 34.6667H34.4482ZM56.1149 34.6667C56.1149 35.3398 56.6605 35.8854 57.3336 35.8854C58.0067 35.8854 58.5524 35.3398 58.5524 34.6667H56.1149ZM36.8857 42.7917C36.8857 42.1186 36.3401 41.573 35.667 41.573C34.9939 41.573 34.4482 42.1186 34.4482 42.7917H36.8857ZM34.4482 42.8188C34.4482 43.4919 34.9939 44.0375 35.667 44.0375C36.3401 44.0375 36.8857 43.4919 36.8857 42.8188H34.4482ZM58.5524 42.7917C58.5524 42.1186 58.0067 41.573 57.3336 41.573C56.6605 41.573 56.1149 42.1186 56.1149 42.7917H58.5524ZM56.1149 42.8188C56.1149 43.4919 56.6605 44.0375 57.3336 44.0375C58.0067 44.0375 58.5524 43.4919 58.5524 42.8188H56.1149ZM32.8542 35.8854H60.1464V33.4479H32.8542V35.8854ZM64.3254 39.6853L66.3889 61.352L68.8154 61.1209L66.752 39.4542L64.3254 39.6853ZM62.2099 65.9479H30.7907V68.3854H62.2099V65.9479ZM26.6117 61.352L28.6752 39.6853L26.2486 39.4542L24.1852 61.1209L26.6117 61.352ZM30.7907 65.9479C28.315 65.9479 26.377 63.8165 26.6117 61.352L24.1852 61.1209C23.8142 65.0165 26.8775 68.3854 30.7907 68.3854V65.9479ZM66.3889 61.352C66.6236 63.8165 64.6856 65.9479 62.2099 65.9479V68.3854C66.1231 68.3854 69.1864 65.0164 68.8154 61.1209L66.3889 61.352ZM60.1464 35.8854C62.3107 35.8854 64.1202 37.5308 64.3254 39.6853L66.752 39.4542C66.4276 36.0487 63.5674 33.4479 60.1464 33.4479V35.8854ZM32.8542 33.4479C29.4332 33.4479 26.573 36.0487 26.2486 39.4542L28.6752 39.6853C28.8804 37.5308 30.6899 35.8854 32.8542 35.8854V33.4479ZM36.8857 31.9583C36.8857 26.6483 41.1903 22.3438 46.5003 22.3438V19.9062C39.8441 19.9062 34.4482 25.3022 34.4482 31.9583H36.8857ZM46.5003 22.3438C51.8103 22.3438 56.1149 26.6483 56.1149 31.9583H58.5524C58.5524 25.3022 53.1565 19.9062 46.5003 19.9062V22.3438ZM34.4482 31.9583V34.6667H36.8857V31.9583H34.4482ZM56.1149 31.9583V34.6667H58.5524V31.9583H56.1149ZM34.4482 42.7917V42.8188H36.8857V42.7917H34.4482ZM56.1149 42.7917V42.8188H58.5524V42.7917H56.1149Z" fill="white"/>
</svg>
