<svg width="31" height="31" viewBox="0 0 31 31" fill="none" xmlns="http://www.w3.org/2000/svg">
<path d="M27.1107 15.7985C27.1107 21.9873 22.0937 27.0043 15.905 27.0043C9.7162 27.0043 4.69922 21.9873 4.69922 15.7985C4.69922 9.60976 9.7162 4.59277 15.905 4.59277C22.0937 4.59277 27.1107 9.60976 27.1107 15.7985Z" fill="#3EB49C" fill-opacity="0.25"/>
<path d="M22.7907 12.7236C23.1554 12.3589 23.1554 11.7676 22.7907 11.403C22.426 11.0383 21.8347 11.0383 21.4701 11.403L22.7907 12.7236ZM13.4148 20.7789L12.7545 21.4392C13.1191 21.8039 13.7104 21.8039 14.0751 21.4392L13.4148 20.7789ZM10.3398 16.3833C9.9751 16.0186 9.38384 16.0186 9.01917 16.3833C8.65449 16.748 8.65449 17.3392 9.01917 17.7039L10.3398 16.3833ZM21.4701 11.403L12.7545 20.1186L14.0751 21.4392L22.7907 12.7236L21.4701 11.403ZM9.01917 17.7039L12.7545 21.4392L14.0751 20.1186L10.3398 16.3833L9.01917 17.7039ZM26.1769 15.7985C26.1769 21.4715 21.578 26.0704 15.905 26.0704V27.9381C22.6095 27.9381 28.0445 22.503 28.0445 15.7985H26.1769ZM15.905 26.0704C10.2319 26.0704 5.63303 21.4715 5.63303 15.7985H3.76541C3.76541 22.503 9.20047 27.9381 15.905 27.9381V26.0704ZM5.63303 15.7985C5.63303 10.1255 10.2319 5.52659 15.905 5.52659V3.65896C9.20047 3.65896 3.76541 9.09403 3.76541 15.7985H5.63303ZM15.905 5.52659C21.578 5.52659 26.1769 10.1255 26.1769 15.7985H28.0445C28.0445 9.09403 22.6095 3.65896 15.905 3.65896V5.52659Z" fill="#3EB49C"/>
</svg>
