<svg width="39" height="39" viewBox="0 0 39 39" xmlns="http://www.w3.org/2000/svg">
<path opacity="0.15" d="M19.5 17.875C23.0899 17.875 26 14.9649 26 11.375C26 7.78515 23.0899 4.875 19.5 4.875C15.9101 4.875 13 7.78515 13 11.375C13 14.9649 15.9101 17.875 19.5 17.875Z"/>
<path d="M32.5 34.125V30.875C32.5 27.2851 29.5899 24.375 26 24.375H13C9.41015 24.375 6.5 27.2851 6.5 30.875V34.125M26 11.375C26 14.9649 23.0899 17.875 19.5 17.875C15.9101 17.875 13 14.9649 13 11.375C13 7.78515 15.9101 4.875 19.5 4.875C23.0899 4.875 26 7.78515 26 11.375Z" stroke-width="2.4375" stroke-linecap="round" stroke-linejoin="round"/>
</svg>
